G75*
%MOIN*%
%OFA0B0*%
%FSLAX25Y25*%
%IPPOS*%
%LPD*%
%AMOC8*
5,1,8,0,0,1.08239X$1,22.5*
%
%ADD10R,0.06000X0.06000*%
%ADD11C,0.06000*%
%ADD12C,0.04156*%
%ADD13C,0.00600*%
%ADD14C,0.02700*%
%ADD15C,0.03762*%
%ADD16C,0.05000*%
D10*
X0019919Y0018582D03*
X0019919Y0108582D03*
X0019919Y0148582D03*
X0019919Y0198582D03*
X0019919Y0248582D03*
X0109919Y0208582D03*
X0109919Y0128582D03*
X0109919Y0058982D03*
D11*
X0109919Y0068982D03*
X0109919Y0078982D03*
X0109919Y0138582D03*
X0109919Y0148582D03*
X0109919Y0158582D03*
X0109919Y0218582D03*
X0109919Y0228582D03*
X0019919Y0228582D03*
X0019919Y0238582D03*
X0019919Y0188582D03*
X0019919Y0178582D03*
X0019919Y0138582D03*
X0019919Y0128582D03*
X0019919Y0098582D03*
X0019919Y0088582D03*
X0019919Y0078582D03*
X0019919Y0068582D03*
X0019919Y0028582D03*
D12*
X0081592Y0024028D03*
X0103246Y0024028D03*
D13*
X0017019Y0014682D02*
X0017019Y0010682D01*
X0112819Y0010682D01*
X0112819Y0055082D01*
X0106546Y0055082D01*
X0106019Y0055610D01*
X0106019Y0062355D01*
X0106546Y0062882D01*
X0112819Y0062882D01*
X0112819Y0066367D01*
X0112128Y0065676D01*
X0110695Y0065082D01*
X0109143Y0065082D01*
X0107710Y0065676D01*
X0106613Y0066773D01*
X0106377Y0067343D01*
X0106016Y0066982D01*
X0101016Y0061982D01*
X0083601Y0061982D01*
X0082551Y0060932D01*
X0080687Y0060932D01*
X0079369Y0062250D01*
X0079369Y0064114D01*
X0080687Y0065432D01*
X0082551Y0065432D01*
X0083601Y0064382D01*
X0091822Y0064382D01*
X0083661Y0072543D01*
X0083651Y0072532D01*
X0081787Y0072532D01*
X0080469Y0073850D01*
X0080469Y0075714D01*
X0081787Y0077032D01*
X0082972Y0077032D01*
X0082822Y0077182D01*
X0082119Y0077885D01*
X0082119Y0078000D01*
X0080851Y0076732D01*
X0078987Y0076732D01*
X0078319Y0077400D01*
X0078319Y0050164D01*
X0078987Y0050832D01*
X0080851Y0050832D01*
X0081901Y0049782D01*
X0090669Y0049782D01*
X0090669Y0050514D01*
X0091987Y0051832D01*
X0093851Y0051832D01*
X0095169Y0050514D01*
X0095169Y0048650D01*
X0093851Y0047332D01*
X0091987Y0047332D01*
X0091937Y0047382D01*
X0081901Y0047382D01*
X0080851Y0046332D01*
X0078987Y0046332D01*
X0078319Y0047000D01*
X0078319Y0036906D01*
X0077801Y0035656D01*
X0058801Y0016656D01*
X0057845Y0015700D01*
X0056595Y0015182D01*
X0023792Y0015182D01*
X0023292Y0014682D01*
X0017019Y0014682D01*
X0017019Y0014169D02*
X0112819Y0014169D01*
X0112819Y0014768D02*
X0023377Y0014768D01*
X0023792Y0021982D02*
X0023292Y0022482D01*
X0017019Y0022482D01*
X0017019Y0025401D01*
X0017118Y0025303D01*
X0017665Y0024905D01*
X0018268Y0024597D01*
X0018912Y0024388D01*
X0019581Y0024282D01*
X0019619Y0024282D01*
X0019619Y0028282D01*
X0020219Y0028282D01*
X0020219Y0024282D01*
X0020257Y0024282D01*
X0020926Y0024388D01*
X0021570Y0024597D01*
X0022173Y0024905D01*
X0022720Y0025303D01*
X0023199Y0025781D01*
X0023597Y0026329D01*
X0023904Y0026932D01*
X0024113Y0027575D01*
X0024219Y0028244D01*
X0024219Y0028282D01*
X0020219Y0028282D01*
X0020219Y0028882D01*
X0024219Y0028882D01*
X0024219Y0028921D01*
X0024113Y0029589D01*
X0023904Y0030233D01*
X0023597Y0030836D01*
X0023199Y0031384D01*
X0022720Y0031862D01*
X0022173Y0032260D01*
X0021570Y0032567D01*
X0020926Y0032777D01*
X0020257Y0032882D01*
X0020219Y0032882D01*
X0020219Y0028882D01*
X0019619Y0028882D01*
X0019619Y0032882D01*
X0019581Y0032882D01*
X0018912Y0032777D01*
X0018268Y0032567D01*
X0017665Y0032260D01*
X0017118Y0031862D01*
X0017019Y0031763D01*
X0017019Y0065401D01*
X0017118Y0065303D01*
X0017665Y0064905D01*
X0018268Y0064597D01*
X0018912Y0064388D01*
X0019581Y0064282D01*
X0019619Y0064282D01*
X0019619Y0068282D01*
X0020219Y0068282D01*
X0020219Y0064282D01*
X0020257Y0064282D01*
X0020926Y0064388D01*
X0021570Y0064597D01*
X0022173Y0064905D01*
X0022720Y0065303D01*
X0023199Y0065781D01*
X0023597Y0066329D01*
X0023904Y0066932D01*
X0024113Y0067575D01*
X0024219Y0068244D01*
X0024219Y0068282D01*
X0020219Y0068282D01*
X0020219Y0068882D01*
X0024219Y0068882D01*
X0024219Y0068921D01*
X0024113Y0069589D01*
X0023904Y0070233D01*
X0023597Y0070836D01*
X0023199Y0071384D01*
X0022720Y0071862D01*
X0022173Y0072260D01*
X0021570Y0072567D01*
X0020926Y0072777D01*
X0020257Y0072882D01*
X0020219Y0072882D01*
X0020219Y0068882D01*
X0019619Y0068882D01*
X0019619Y0072882D01*
X0019581Y0072882D01*
X0018912Y0072777D01*
X0018268Y0072567D01*
X0017665Y0072260D01*
X0017118Y0071862D01*
X0017019Y0071763D01*
X0017019Y0075967D01*
X0017710Y0075276D01*
X0019143Y0074682D01*
X0020695Y0074682D01*
X0022128Y0075276D01*
X0023225Y0076373D01*
X0023819Y0077807D01*
X0023819Y0079358D01*
X0023225Y0080792D01*
X0022128Y0081889D01*
X0020695Y0082482D01*
X0019143Y0082482D01*
X0017710Y0081889D01*
X0017019Y0081198D01*
X0017019Y0085967D01*
X0017710Y0085276D01*
X0019143Y0084682D01*
X0020695Y0084682D01*
X0022128Y0085276D01*
X0023225Y0086373D01*
X0023819Y0087807D01*
X0023819Y0089358D01*
X0023225Y0090792D01*
X0022128Y0091889D01*
X0020695Y0092482D01*
X0019143Y0092482D01*
X0017710Y0091889D01*
X0017019Y0091198D01*
X0017019Y0095967D01*
X0017710Y0095276D01*
X0019143Y0094682D01*
X0020695Y0094682D01*
X0022128Y0095276D01*
X0023225Y0096373D01*
X0023819Y0097807D01*
X0023819Y0099358D01*
X0023225Y0100792D01*
X0022128Y0101889D01*
X0020695Y0102482D01*
X0019143Y0102482D01*
X0017710Y0101889D01*
X0017019Y0101198D01*
X0017019Y0104682D01*
X0023292Y0104682D01*
X0023707Y0105097D01*
X0026719Y0102085D01*
X0026719Y0061579D01*
X0022972Y0057832D01*
X0021487Y0057832D01*
X0020169Y0056514D01*
X0020169Y0054650D01*
X0021487Y0053332D01*
X0023351Y0053332D01*
X0024669Y0054650D01*
X0024669Y0056135D01*
X0028416Y0059882D01*
X0029119Y0060585D01*
X0029119Y0103079D01*
X0023819Y0108379D01*
X0023819Y0111955D01*
X0023292Y0112482D01*
X0017019Y0112482D01*
X0017019Y0125967D01*
X0017710Y0125276D01*
X0019143Y0124682D01*
X0020695Y0124682D01*
X0022128Y0125276D01*
X0023225Y0126373D01*
X0023819Y0127807D01*
X0023819Y0129358D01*
X0023225Y0130792D01*
X0022128Y0131889D01*
X0020695Y0132482D01*
X0019143Y0132482D01*
X0017710Y0131889D01*
X0017019Y0131198D01*
X0017019Y0135967D01*
X0017710Y0135276D01*
X0019143Y0134682D01*
X0020695Y0134682D01*
X0022128Y0135276D01*
X0023225Y0136373D01*
X0023819Y0137807D01*
X0023819Y0139358D01*
X0023225Y0140792D01*
X0022128Y0141889D01*
X0020695Y0142482D01*
X0019143Y0142482D01*
X0017710Y0141889D01*
X0017019Y0141198D01*
X0017019Y0144682D01*
X0023292Y0144682D01*
X0023819Y0145210D01*
X0023819Y0151955D01*
X0023292Y0152482D01*
X0017019Y0152482D01*
X0017019Y0175967D01*
X0017710Y0175276D01*
X0019143Y0174682D01*
X0020695Y0174682D01*
X0022128Y0175276D01*
X0023225Y0176373D01*
X0023819Y0177807D01*
X0023819Y0179358D01*
X0026719Y0179358D01*
X0026719Y0178760D02*
X0023819Y0178760D01*
X0023819Y0179358D02*
X0023225Y0180792D01*
X0022128Y0181889D01*
X0020695Y0182482D01*
X0019143Y0182482D01*
X0017710Y0181889D01*
X0017019Y0181198D01*
X0017019Y0185967D01*
X0017710Y0185276D01*
X0019143Y0184682D01*
X0020695Y0184682D01*
X0022128Y0185276D01*
X0023225Y0186373D01*
X0023819Y0187807D01*
X0023819Y0189358D01*
X0023225Y0190792D01*
X0022128Y0191889D01*
X0020695Y0192482D01*
X0019143Y0192482D01*
X0017710Y0191889D01*
X0017019Y0191198D01*
X0017019Y0194682D01*
X0023292Y0194682D01*
X0023819Y0195210D01*
X0023819Y0201955D01*
X0023292Y0202482D01*
X0017019Y0202482D01*
X0017019Y0225967D01*
X0017710Y0225276D01*
X0019143Y0224682D01*
X0020695Y0224682D01*
X0022128Y0225276D01*
X0023225Y0226373D01*
X0023819Y0227807D01*
X0023819Y0229358D01*
X0023225Y0230792D01*
X0022128Y0231889D01*
X0020695Y0232482D01*
X0019143Y0232482D01*
X0017710Y0231889D01*
X0017019Y0231198D01*
X0017019Y0235967D01*
X0017710Y0235276D01*
X0019143Y0234682D01*
X0020695Y0234682D01*
X0022128Y0235276D01*
X0023225Y0236373D01*
X0023819Y0237807D01*
X0023819Y0239358D01*
X0023225Y0240792D01*
X0022128Y0241889D01*
X0020695Y0242482D01*
X0019143Y0242482D01*
X0017710Y0241889D01*
X0017019Y0241198D01*
X0017019Y0244682D01*
X0023292Y0244682D01*
X0023819Y0245210D01*
X0023819Y0251955D01*
X0023292Y0252482D01*
X0017019Y0252482D01*
X0017019Y0266482D01*
X0112819Y0266482D01*
X0112819Y0231198D01*
X0112128Y0231889D01*
X0110695Y0232482D01*
X0109143Y0232482D01*
X0107710Y0231889D01*
X0106613Y0230792D01*
X0106019Y0229358D01*
X0106019Y0227807D01*
X0106613Y0226373D01*
X0107710Y0225276D01*
X0109143Y0224682D01*
X0110695Y0224682D01*
X0112128Y0225276D01*
X0112819Y0225967D01*
X0112819Y0221763D01*
X0112720Y0221862D01*
X0112173Y0222260D01*
X0111570Y0222567D01*
X0110926Y0222777D01*
X0110257Y0222882D01*
X0110219Y0222882D01*
X0110219Y0218882D01*
X0109619Y0218882D01*
X0109619Y0218282D01*
X0110219Y0218282D01*
X0110219Y0214282D01*
X0110257Y0214282D01*
X0110926Y0214388D01*
X0111570Y0214597D01*
X0112173Y0214905D01*
X0112720Y0215303D01*
X0112819Y0215401D01*
X0112819Y0212482D01*
X0106546Y0212482D01*
X0106019Y0211955D01*
X0106019Y0205210D01*
X0106546Y0204682D01*
X0107319Y0204682D01*
X0107319Y0202879D01*
X0103719Y0206479D01*
X0103719Y0218079D01*
X0094719Y0227079D01*
X0094719Y0258879D01*
X0094569Y0259029D01*
X0094569Y0260514D01*
X0093701Y0261382D01*
X0094022Y0261382D01*
X0095669Y0259735D01*
X0095669Y0258250D01*
X0096987Y0256932D01*
X0098851Y0256932D01*
X0100169Y0258250D01*
X0100169Y0260114D01*
X0098851Y0261432D01*
X0097366Y0261432D01*
X0096216Y0262582D01*
X0104222Y0262582D01*
X0105719Y0261085D01*
X0105719Y0237564D01*
X0104669Y0236514D01*
X0104669Y0234650D01*
X0105987Y0233332D01*
X0107851Y0233332D01*
X0109169Y0234650D01*
X0109169Y0236514D01*
X0108119Y0237564D01*
X0108119Y0242200D01*
X0108987Y0241332D01*
X0110851Y0241332D01*
X0112169Y0242650D01*
X0112169Y0244514D01*
X0111119Y0245564D01*
X0111119Y0262079D01*
X0107719Y0265479D01*
X0107016Y0266182D01*
X0029822Y0266182D01*
X0026719Y0263079D01*
X0026719Y0118085D01*
X0027422Y0117382D01*
X0044719Y0100085D01*
X0044719Y0086564D01*
X0043669Y0085514D01*
X0043669Y0083650D01*
X0044987Y0082332D01*
X0046851Y0082332D01*
X0048169Y0083650D01*
X0048169Y0085514D01*
X0047119Y0086564D01*
X0047119Y0101079D01*
X0029119Y0119079D01*
X0029119Y0120685D01*
X0048719Y0101085D01*
X0048719Y0083832D01*
X0048387Y0083832D01*
X0047069Y0082514D01*
X0047069Y0080650D01*
X0048387Y0079332D01*
X0050251Y0079332D01*
X0051569Y0080650D01*
X0051569Y0082514D01*
X0051119Y0082964D01*
X0051119Y0095285D01*
X0051622Y0094782D01*
X0051669Y0094735D01*
X0051669Y0093250D01*
X0052987Y0091932D01*
X0054851Y0091932D01*
X0056169Y0093250D01*
X0056169Y0095114D01*
X0054851Y0096432D01*
X0053366Y0096432D01*
X0053319Y0096479D01*
X0053319Y0097500D01*
X0053987Y0096832D01*
X0055851Y0096832D01*
X0057169Y0098150D01*
X0057169Y0100014D01*
X0056119Y0101064D01*
X0056119Y0103679D01*
X0034719Y0125079D01*
X0034719Y0139085D01*
X0034719Y0128085D01*
X0056719Y0106085D01*
X0057422Y0105382D01*
X0058137Y0105382D01*
X0059187Y0104332D01*
X0061051Y0104332D01*
X0062369Y0105650D01*
X0062369Y0107514D01*
X0061501Y0108382D01*
X0063022Y0108382D01*
X0063519Y0107885D01*
X0063519Y0096279D01*
X0064756Y0095042D01*
X0064756Y0093857D01*
X0066074Y0092539D01*
X0067938Y0092539D01*
X0068919Y0093519D01*
X0068919Y0089279D01*
X0068272Y0088632D01*
X0066787Y0088632D01*
X0065469Y0087314D01*
X0065469Y0085450D01*
X0066787Y0084132D01*
X0068651Y0084132D01*
X0069969Y0085450D01*
X0069969Y0086935D01*
X0070119Y0087085D01*
X0070119Y0080832D01*
X0068987Y0080832D01*
X0067669Y0079514D01*
X0067669Y0077650D01*
X0068987Y0076332D01*
X0070851Y0076332D01*
X0071519Y0077000D01*
X0071519Y0045164D01*
X0070851Y0045832D01*
X0068987Y0045832D01*
X0067937Y0044782D01*
X0066416Y0044782D01*
X0050119Y0061079D01*
X0050119Y0071600D01*
X0050719Y0072200D01*
X0050719Y0062085D01*
X0053028Y0059776D01*
X0064937Y0059776D01*
X0065987Y0058726D01*
X0067851Y0058726D01*
X0069169Y0060044D01*
X0069169Y0061908D01*
X0067851Y0063226D01*
X0065987Y0063226D01*
X0064937Y0062176D01*
X0054022Y0062176D01*
X0053119Y0063079D01*
X0053119Y0078085D01*
X0053366Y0078332D01*
X0054851Y0078332D01*
X0056169Y0079650D01*
X0056169Y0081514D01*
X0054851Y0082832D01*
X0052987Y0082832D01*
X0051669Y0081514D01*
X0051669Y0080029D01*
X0050719Y0079079D01*
X0050719Y0074964D01*
X0049851Y0075832D01*
X0047987Y0075832D01*
X0046669Y0074514D01*
X0046669Y0072650D01*
X0047719Y0071600D01*
X0047719Y0060085D01*
X0048422Y0059382D01*
X0065422Y0042382D01*
X0067937Y0042382D01*
X0068987Y0041332D01*
X0070851Y0041332D01*
X0071519Y0042000D01*
X0071519Y0038991D01*
X0054511Y0021982D01*
X0023792Y0021982D01*
X0022224Y0024942D02*
X0057470Y0024942D01*
X0056872Y0024344D02*
X0020644Y0024344D01*
X0020219Y0024344D02*
X0019619Y0024344D01*
X0019194Y0024344D02*
X0017019Y0024344D01*
X0017019Y0024942D02*
X0017614Y0024942D01*
X0017019Y0023745D02*
X0056273Y0023745D01*
X0055675Y0023147D02*
X0017019Y0023147D01*
X0017019Y0022548D02*
X0055076Y0022548D01*
X0058069Y0025541D02*
X0022958Y0025541D01*
X0023459Y0026139D02*
X0058668Y0026139D01*
X0059266Y0026738D02*
X0023805Y0026738D01*
X0024035Y0027336D02*
X0059865Y0027336D01*
X0060463Y0027935D02*
X0024170Y0027935D01*
X0024186Y0029132D02*
X0061660Y0029132D01*
X0062259Y0029730D02*
X0024067Y0029730D01*
X0023855Y0030329D02*
X0062857Y0030329D01*
X0063456Y0030927D02*
X0023530Y0030927D01*
X0023057Y0031526D02*
X0064054Y0031526D01*
X0064653Y0032124D02*
X0022360Y0032124D01*
X0021091Y0032723D02*
X0065251Y0032723D01*
X0065850Y0033321D02*
X0017019Y0033321D01*
X0017019Y0032723D02*
X0018747Y0032723D01*
X0019619Y0032723D02*
X0020219Y0032723D01*
X0020219Y0032124D02*
X0019619Y0032124D01*
X0019619Y0031526D02*
X0020219Y0031526D01*
X0020219Y0030927D02*
X0019619Y0030927D01*
X0019619Y0030329D02*
X0020219Y0030329D01*
X0020219Y0029730D02*
X0019619Y0029730D01*
X0019619Y0029132D02*
X0020219Y0029132D01*
X0020219Y0028533D02*
X0061062Y0028533D01*
X0064693Y0022548D02*
X0078549Y0022548D01*
X0078599Y0022428D02*
X0078968Y0021875D01*
X0079439Y0021404D01*
X0079992Y0021035D01*
X0080607Y0020780D01*
X0081260Y0020650D01*
X0081292Y0020650D01*
X0081292Y0023728D01*
X0078214Y0023728D01*
X0078214Y0023695D01*
X0078344Y0023043D01*
X0078599Y0022428D01*
X0078918Y0021950D02*
X0064095Y0021950D01*
X0063496Y0021351D02*
X0079518Y0021351D01*
X0080744Y0020753D02*
X0062898Y0020753D01*
X0062299Y0020154D02*
X0112819Y0020154D01*
X0112819Y0019556D02*
X0061701Y0019556D01*
X0061102Y0018957D02*
X0112819Y0018957D01*
X0112819Y0018359D02*
X0060504Y0018359D01*
X0059905Y0017760D02*
X0112819Y0017760D01*
X0112819Y0017162D02*
X0059306Y0017162D01*
X0058708Y0016563D02*
X0112819Y0016563D01*
X0112819Y0015965D02*
X0058109Y0015965D01*
X0057039Y0015366D02*
X0112819Y0015366D01*
X0112819Y0013570D02*
X0017019Y0013570D01*
X0017019Y0012972D02*
X0112819Y0012972D01*
X0112819Y0012373D02*
X0017019Y0012373D01*
X0017019Y0011775D02*
X0112819Y0011775D01*
X0112819Y0011176D02*
X0017019Y0011176D01*
X0019619Y0024942D02*
X0020219Y0024942D01*
X0020219Y0025541D02*
X0019619Y0025541D01*
X0019619Y0026139D02*
X0020219Y0026139D01*
X0020219Y0026738D02*
X0019619Y0026738D01*
X0019619Y0027336D02*
X0020219Y0027336D01*
X0020219Y0027935D02*
X0019619Y0027935D01*
X0017478Y0032124D02*
X0017019Y0032124D01*
X0017019Y0033920D02*
X0066448Y0033920D01*
X0067047Y0034518D02*
X0017019Y0034518D01*
X0017019Y0035117D02*
X0067645Y0035117D01*
X0068244Y0035715D02*
X0017019Y0035715D01*
X0017019Y0036314D02*
X0068842Y0036314D01*
X0069441Y0036912D02*
X0017019Y0036912D01*
X0017019Y0037511D02*
X0070039Y0037511D01*
X0070638Y0038109D02*
X0017019Y0038109D01*
X0017019Y0038708D02*
X0071236Y0038708D01*
X0071519Y0039306D02*
X0017019Y0039306D01*
X0017019Y0039905D02*
X0071519Y0039905D01*
X0071519Y0040503D02*
X0017019Y0040503D01*
X0017019Y0041102D02*
X0071519Y0041102D01*
X0071519Y0041701D02*
X0071219Y0041701D01*
X0069919Y0043582D02*
X0065919Y0043582D01*
X0048919Y0060582D01*
X0048919Y0073582D01*
X0047372Y0075217D02*
X0029119Y0075217D01*
X0029119Y0074619D02*
X0046773Y0074619D01*
X0046669Y0074020D02*
X0029119Y0074020D01*
X0029119Y0073422D02*
X0046669Y0073422D01*
X0046669Y0072823D02*
X0029119Y0072823D01*
X0029119Y0072225D02*
X0047095Y0072225D01*
X0047693Y0071626D02*
X0029119Y0071626D01*
X0029119Y0071028D02*
X0047719Y0071028D01*
X0047719Y0070429D02*
X0029119Y0070429D01*
X0029119Y0069831D02*
X0047719Y0069831D01*
X0047719Y0069232D02*
X0029119Y0069232D01*
X0029119Y0068634D02*
X0047719Y0068634D01*
X0047719Y0068035D02*
X0029119Y0068035D01*
X0029119Y0067437D02*
X0047719Y0067437D01*
X0047719Y0066838D02*
X0029119Y0066838D01*
X0029119Y0066239D02*
X0047719Y0066239D01*
X0047719Y0065641D02*
X0029119Y0065641D01*
X0029119Y0065042D02*
X0047719Y0065042D01*
X0047719Y0064444D02*
X0029119Y0064444D01*
X0029119Y0063845D02*
X0047719Y0063845D01*
X0047719Y0063247D02*
X0029119Y0063247D01*
X0029119Y0062648D02*
X0047719Y0062648D01*
X0047719Y0062050D02*
X0029119Y0062050D01*
X0029119Y0061451D02*
X0047719Y0061451D01*
X0047719Y0060853D02*
X0029119Y0060853D01*
X0028788Y0060254D02*
X0047719Y0060254D01*
X0048148Y0059656D02*
X0028190Y0059656D01*
X0027591Y0059057D02*
X0048747Y0059057D01*
X0049346Y0058459D02*
X0026992Y0058459D01*
X0026394Y0057860D02*
X0049944Y0057860D01*
X0050543Y0057262D02*
X0025795Y0057262D01*
X0025197Y0056663D02*
X0051141Y0056663D01*
X0051740Y0056065D02*
X0024669Y0056065D01*
X0024669Y0055466D02*
X0052338Y0055466D01*
X0052937Y0054868D02*
X0024669Y0054868D01*
X0024288Y0054269D02*
X0053535Y0054269D01*
X0054134Y0053671D02*
X0023689Y0053671D01*
X0022419Y0055582D02*
X0027919Y0061082D01*
X0027919Y0102582D01*
X0021919Y0108582D01*
X0019919Y0108582D01*
X0017019Y0104544D02*
X0024260Y0104544D01*
X0024859Y0103946D02*
X0017019Y0103946D01*
X0017019Y0103347D02*
X0025457Y0103347D01*
X0026056Y0102749D02*
X0017019Y0102749D01*
X0017019Y0102150D02*
X0018341Y0102150D01*
X0017373Y0101552D02*
X0017019Y0101552D01*
X0021497Y0102150D02*
X0026654Y0102150D01*
X0026719Y0101552D02*
X0022465Y0101552D01*
X0023064Y0100953D02*
X0026719Y0100953D01*
X0026719Y0100355D02*
X0023406Y0100355D01*
X0023654Y0099756D02*
X0026719Y0099756D01*
X0026719Y0099158D02*
X0023819Y0099158D01*
X0023819Y0098559D02*
X0026719Y0098559D01*
X0026719Y0097961D02*
X0023819Y0097961D01*
X0023635Y0097362D02*
X0026719Y0097362D01*
X0026719Y0096764D02*
X0023387Y0096764D01*
X0023017Y0096165D02*
X0026719Y0096165D01*
X0026719Y0095567D02*
X0022419Y0095567D01*
X0021384Y0094968D02*
X0026719Y0094968D01*
X0026719Y0094370D02*
X0017019Y0094370D01*
X0017019Y0094968D02*
X0018454Y0094968D01*
X0017419Y0095567D02*
X0017019Y0095567D01*
X0017019Y0093771D02*
X0026719Y0093771D01*
X0026719Y0093172D02*
X0017019Y0093172D01*
X0017019Y0092574D02*
X0026719Y0092574D01*
X0026719Y0091975D02*
X0021919Y0091975D01*
X0022640Y0091377D02*
X0026719Y0091377D01*
X0026719Y0090778D02*
X0023231Y0090778D01*
X0023479Y0090180D02*
X0026719Y0090180D01*
X0026719Y0089581D02*
X0023727Y0089581D01*
X0023819Y0088983D02*
X0026719Y0088983D01*
X0026719Y0088384D02*
X0023819Y0088384D01*
X0023810Y0087786D02*
X0026719Y0087786D01*
X0026719Y0087187D02*
X0023562Y0087187D01*
X0023315Y0086589D02*
X0026719Y0086589D01*
X0026719Y0085990D02*
X0022842Y0085990D01*
X0022244Y0085392D02*
X0026719Y0085392D01*
X0026719Y0084793D02*
X0020963Y0084793D01*
X0018875Y0084793D02*
X0017019Y0084793D01*
X0017019Y0084195D02*
X0026719Y0084195D01*
X0026719Y0083596D02*
X0017019Y0083596D01*
X0017019Y0082998D02*
X0026719Y0082998D01*
X0026719Y0082399D02*
X0020895Y0082399D01*
X0022216Y0081801D02*
X0026719Y0081801D01*
X0026719Y0081202D02*
X0022815Y0081202D01*
X0023303Y0080604D02*
X0026719Y0080604D01*
X0026719Y0080005D02*
X0023551Y0080005D01*
X0023799Y0079407D02*
X0026719Y0079407D01*
X0026719Y0078808D02*
X0023819Y0078808D01*
X0023819Y0078210D02*
X0026719Y0078210D01*
X0026719Y0077611D02*
X0023738Y0077611D01*
X0023490Y0077013D02*
X0026719Y0077013D01*
X0026719Y0076414D02*
X0023242Y0076414D01*
X0022668Y0075816D02*
X0026719Y0075816D01*
X0026719Y0075217D02*
X0021986Y0075217D01*
X0020632Y0072823D02*
X0026719Y0072823D01*
X0026719Y0072225D02*
X0022222Y0072225D01*
X0022956Y0071626D02*
X0026719Y0071626D01*
X0026719Y0071028D02*
X0023458Y0071028D01*
X0023804Y0070429D02*
X0026719Y0070429D01*
X0026719Y0069831D02*
X0024035Y0069831D01*
X0024170Y0069232D02*
X0026719Y0069232D01*
X0026719Y0068634D02*
X0020219Y0068634D01*
X0020219Y0069232D02*
X0019619Y0069232D01*
X0019619Y0069831D02*
X0020219Y0069831D01*
X0020219Y0070429D02*
X0019619Y0070429D01*
X0019619Y0071028D02*
X0020219Y0071028D01*
X0020219Y0071626D02*
X0019619Y0071626D01*
X0019619Y0072225D02*
X0020219Y0072225D01*
X0020219Y0072823D02*
X0019619Y0072823D01*
X0019206Y0072823D02*
X0017019Y0072823D01*
X0017019Y0072225D02*
X0017616Y0072225D01*
X0017019Y0073422D02*
X0026719Y0073422D01*
X0026719Y0074020D02*
X0017019Y0074020D01*
X0017019Y0074619D02*
X0026719Y0074619D01*
X0029119Y0075816D02*
X0047970Y0075816D01*
X0049868Y0075816D02*
X0050719Y0075816D01*
X0050719Y0076414D02*
X0029119Y0076414D01*
X0029119Y0077013D02*
X0050719Y0077013D01*
X0050719Y0077611D02*
X0029119Y0077611D01*
X0029119Y0078210D02*
X0050719Y0078210D01*
X0050719Y0078808D02*
X0029119Y0078808D01*
X0029119Y0079407D02*
X0048313Y0079407D01*
X0047714Y0080005D02*
X0029119Y0080005D01*
X0029119Y0080604D02*
X0047116Y0080604D01*
X0047069Y0081202D02*
X0029119Y0081202D01*
X0029119Y0081801D02*
X0047069Y0081801D01*
X0047069Y0082399D02*
X0046918Y0082399D01*
X0047516Y0082998D02*
X0047552Y0082998D01*
X0048115Y0083596D02*
X0048151Y0083596D01*
X0048169Y0084195D02*
X0048719Y0084195D01*
X0048719Y0084793D02*
X0048169Y0084793D01*
X0048169Y0085392D02*
X0048719Y0085392D01*
X0048719Y0085990D02*
X0047693Y0085990D01*
X0047119Y0086589D02*
X0048719Y0086589D01*
X0048719Y0087187D02*
X0047119Y0087187D01*
X0047119Y0087786D02*
X0048719Y0087786D01*
X0048719Y0088384D02*
X0047119Y0088384D01*
X0047119Y0088983D02*
X0048719Y0088983D01*
X0048719Y0089581D02*
X0047119Y0089581D01*
X0047119Y0090180D02*
X0048719Y0090180D01*
X0048719Y0090778D02*
X0047119Y0090778D01*
X0047119Y0091377D02*
X0048719Y0091377D01*
X0048719Y0091975D02*
X0047119Y0091975D01*
X0047119Y0092574D02*
X0048719Y0092574D01*
X0048719Y0093172D02*
X0047119Y0093172D01*
X0047119Y0093771D02*
X0048719Y0093771D01*
X0048719Y0094370D02*
X0047119Y0094370D01*
X0047119Y0094968D02*
X0048719Y0094968D01*
X0048719Y0095567D02*
X0047119Y0095567D01*
X0047119Y0096165D02*
X0048719Y0096165D01*
X0048719Y0096764D02*
X0047119Y0096764D01*
X0047119Y0097362D02*
X0048719Y0097362D01*
X0048719Y0097961D02*
X0047119Y0097961D01*
X0047119Y0098559D02*
X0048719Y0098559D01*
X0048719Y0099158D02*
X0047119Y0099158D01*
X0047119Y0099756D02*
X0048719Y0099756D01*
X0048719Y0100355D02*
X0047119Y0100355D01*
X0047119Y0100953D02*
X0048719Y0100953D01*
X0048253Y0101552D02*
X0046647Y0101552D01*
X0046048Y0102150D02*
X0047654Y0102150D01*
X0047056Y0102749D02*
X0045450Y0102749D01*
X0044851Y0103347D02*
X0046457Y0103347D01*
X0045859Y0103946D02*
X0044253Y0103946D01*
X0043654Y0104544D02*
X0045260Y0104544D01*
X0044662Y0105143D02*
X0043056Y0105143D01*
X0042457Y0105741D02*
X0044063Y0105741D01*
X0043465Y0106340D02*
X0041859Y0106340D01*
X0041260Y0106938D02*
X0042866Y0106938D01*
X0042268Y0107537D02*
X0040662Y0107537D01*
X0040063Y0108135D02*
X0041669Y0108135D01*
X0041071Y0108734D02*
X0039465Y0108734D01*
X0038866Y0109332D02*
X0040472Y0109332D01*
X0039874Y0109931D02*
X0038268Y0109931D01*
X0037669Y0110529D02*
X0039275Y0110529D01*
X0038677Y0111128D02*
X0037071Y0111128D01*
X0036472Y0111726D02*
X0038078Y0111726D01*
X0037480Y0112325D02*
X0035874Y0112325D01*
X0035275Y0112923D02*
X0036881Y0112923D01*
X0036282Y0113522D02*
X0034677Y0113522D01*
X0034078Y0114120D02*
X0035684Y0114120D01*
X0035085Y0114719D02*
X0033480Y0114719D01*
X0032881Y0115317D02*
X0034487Y0115317D01*
X0033888Y0115916D02*
X0032283Y0115916D01*
X0031684Y0116514D02*
X0033290Y0116514D01*
X0032691Y0117113D02*
X0031085Y0117113D01*
X0030487Y0117711D02*
X0032093Y0117711D01*
X0031494Y0118310D02*
X0029888Y0118310D01*
X0029290Y0118908D02*
X0030896Y0118908D01*
X0030297Y0119507D02*
X0029119Y0119507D01*
X0029119Y0120105D02*
X0029699Y0120105D01*
X0029319Y0122182D02*
X0029319Y0261982D01*
X0031119Y0263782D01*
X0104719Y0263782D01*
X0106919Y0261582D01*
X0106919Y0235582D01*
X0104669Y0235618D02*
X0094719Y0235618D01*
X0094719Y0235020D02*
X0104669Y0235020D01*
X0104898Y0234421D02*
X0094719Y0234421D01*
X0094719Y0233823D02*
X0105497Y0233823D01*
X0104669Y0236217D02*
X0094719Y0236217D01*
X0094719Y0236815D02*
X0104970Y0236815D01*
X0105568Y0237414D02*
X0094719Y0237414D01*
X0094719Y0238012D02*
X0105719Y0238012D01*
X0105719Y0238611D02*
X0094719Y0238611D01*
X0094719Y0239209D02*
X0105719Y0239209D01*
X0105719Y0239808D02*
X0094719Y0239808D01*
X0094719Y0240406D02*
X0105719Y0240406D01*
X0105719Y0241005D02*
X0094719Y0241005D01*
X0094719Y0241603D02*
X0105719Y0241603D01*
X0105719Y0242202D02*
X0094719Y0242202D01*
X0094719Y0242800D02*
X0105719Y0242800D01*
X0105719Y0243399D02*
X0094719Y0243399D01*
X0094719Y0243997D02*
X0105719Y0243997D01*
X0105719Y0244596D02*
X0094719Y0244596D01*
X0094719Y0245194D02*
X0105719Y0245194D01*
X0105719Y0245793D02*
X0094719Y0245793D01*
X0094719Y0246391D02*
X0105719Y0246391D01*
X0105719Y0246990D02*
X0094719Y0246990D01*
X0094719Y0247588D02*
X0105719Y0247588D01*
X0105719Y0248187D02*
X0094719Y0248187D01*
X0094719Y0248785D02*
X0105719Y0248785D01*
X0105719Y0249384D02*
X0094719Y0249384D01*
X0094719Y0249982D02*
X0105719Y0249982D01*
X0105719Y0250581D02*
X0094719Y0250581D01*
X0094719Y0251179D02*
X0105719Y0251179D01*
X0105719Y0251778D02*
X0094719Y0251778D01*
X0094719Y0252377D02*
X0105719Y0252377D01*
X0105719Y0252975D02*
X0094719Y0252975D01*
X0094719Y0253574D02*
X0105719Y0253574D01*
X0105719Y0254172D02*
X0094719Y0254172D01*
X0094719Y0254771D02*
X0105719Y0254771D01*
X0105719Y0255369D02*
X0094719Y0255369D01*
X0094719Y0255968D02*
X0105719Y0255968D01*
X0105719Y0256566D02*
X0094719Y0256566D01*
X0094719Y0257165D02*
X0096755Y0257165D01*
X0096156Y0257763D02*
X0094719Y0257763D01*
X0094719Y0258362D02*
X0095669Y0258362D01*
X0095669Y0258960D02*
X0094638Y0258960D01*
X0094569Y0259559D02*
X0095669Y0259559D01*
X0095247Y0260157D02*
X0094569Y0260157D01*
X0094649Y0260756D02*
X0094328Y0260756D01*
X0094050Y0261354D02*
X0093729Y0261354D01*
X0094519Y0262582D02*
X0031719Y0262582D01*
X0030519Y0261382D01*
X0030519Y0140182D01*
X0031919Y0138782D01*
X0031919Y0124382D01*
X0052119Y0104182D01*
X0052119Y0095982D01*
X0053919Y0094182D01*
X0052345Y0092574D02*
X0051119Y0092574D01*
X0051119Y0093172D02*
X0051747Y0093172D01*
X0051669Y0093771D02*
X0051119Y0093771D01*
X0051119Y0094370D02*
X0051669Y0094370D01*
X0051436Y0094968D02*
X0051119Y0094968D01*
X0051119Y0091975D02*
X0052944Y0091975D01*
X0054894Y0091975D02*
X0059719Y0091975D01*
X0059719Y0091377D02*
X0051119Y0091377D01*
X0051119Y0090778D02*
X0059719Y0090778D01*
X0059719Y0090180D02*
X0051119Y0090180D01*
X0051119Y0089581D02*
X0059719Y0089581D01*
X0059719Y0088983D02*
X0051119Y0088983D01*
X0051119Y0088384D02*
X0059719Y0088384D01*
X0059719Y0087786D02*
X0051119Y0087786D01*
X0051119Y0087187D02*
X0059719Y0087187D01*
X0059719Y0086589D02*
X0051119Y0086589D01*
X0051119Y0085990D02*
X0059719Y0085990D01*
X0059719Y0085392D02*
X0051119Y0085392D01*
X0051119Y0084793D02*
X0059719Y0084793D01*
X0059719Y0084195D02*
X0051119Y0084195D01*
X0051119Y0083596D02*
X0059719Y0083596D01*
X0059719Y0082998D02*
X0051119Y0082998D01*
X0051569Y0082399D02*
X0052554Y0082399D01*
X0051955Y0081801D02*
X0051569Y0081801D01*
X0051569Y0081202D02*
X0051669Y0081202D01*
X0051669Y0080604D02*
X0051522Y0080604D01*
X0051645Y0080005D02*
X0050924Y0080005D01*
X0051046Y0079407D02*
X0050325Y0079407D01*
X0051919Y0078582D02*
X0053919Y0080582D01*
X0055327Y0078808D02*
X0059719Y0078808D01*
X0059719Y0078210D02*
X0053243Y0078210D01*
X0053119Y0077611D02*
X0059719Y0077611D01*
X0059719Y0077013D02*
X0053119Y0077013D01*
X0053119Y0076414D02*
X0059719Y0076414D01*
X0059719Y0075816D02*
X0053119Y0075816D01*
X0053119Y0075217D02*
X0059719Y0075217D01*
X0059719Y0074619D02*
X0053119Y0074619D01*
X0053119Y0074020D02*
X0059719Y0074020D01*
X0059719Y0073422D02*
X0053119Y0073422D01*
X0053119Y0072823D02*
X0059719Y0072823D01*
X0059719Y0072225D02*
X0053119Y0072225D01*
X0053119Y0071626D02*
X0060178Y0071626D01*
X0060422Y0071382D02*
X0060669Y0071135D01*
X0060669Y0069650D01*
X0061987Y0068332D01*
X0063851Y0068332D01*
X0065169Y0069650D01*
X0065169Y0071514D01*
X0063851Y0072832D01*
X0062366Y0072832D01*
X0062119Y0073079D01*
X0062119Y0100479D01*
X0061269Y0101329D01*
X0061269Y0102814D01*
X0059951Y0104132D01*
X0058087Y0104132D01*
X0056769Y0102814D01*
X0056769Y0100950D01*
X0058087Y0099632D01*
X0059572Y0099632D01*
X0059719Y0099485D01*
X0059719Y0072085D01*
X0060422Y0071382D01*
X0060669Y0071028D02*
X0053119Y0071028D01*
X0053119Y0070429D02*
X0060669Y0070429D01*
X0060669Y0069831D02*
X0053119Y0069831D01*
X0053119Y0069232D02*
X0061087Y0069232D01*
X0061686Y0068634D02*
X0053119Y0068634D01*
X0053119Y0068035D02*
X0071519Y0068035D01*
X0071519Y0067437D02*
X0053119Y0067437D01*
X0053119Y0066838D02*
X0071519Y0066838D01*
X0071519Y0066239D02*
X0053119Y0066239D01*
X0053119Y0065641D02*
X0071519Y0065641D01*
X0071519Y0065042D02*
X0053119Y0065042D01*
X0053119Y0064444D02*
X0071519Y0064444D01*
X0071519Y0063845D02*
X0053119Y0063845D01*
X0053119Y0063247D02*
X0071519Y0063247D01*
X0071519Y0062648D02*
X0068429Y0062648D01*
X0069027Y0062050D02*
X0071519Y0062050D01*
X0071519Y0061451D02*
X0069169Y0061451D01*
X0069169Y0060853D02*
X0071519Y0060853D01*
X0071519Y0060254D02*
X0069169Y0060254D01*
X0068781Y0059656D02*
X0071519Y0059656D01*
X0071519Y0059057D02*
X0068182Y0059057D01*
X0066919Y0060976D02*
X0053525Y0060976D01*
X0051919Y0062582D01*
X0051919Y0078582D01*
X0050719Y0075217D02*
X0050466Y0075217D01*
X0050719Y0071626D02*
X0050145Y0071626D01*
X0050119Y0071028D02*
X0050719Y0071028D01*
X0050719Y0070429D02*
X0050119Y0070429D01*
X0050119Y0069831D02*
X0050719Y0069831D01*
X0050719Y0069232D02*
X0050119Y0069232D01*
X0050119Y0068634D02*
X0050719Y0068634D01*
X0050719Y0068035D02*
X0050119Y0068035D01*
X0050119Y0067437D02*
X0050719Y0067437D01*
X0050719Y0066838D02*
X0050119Y0066838D01*
X0050119Y0066239D02*
X0050719Y0066239D01*
X0050719Y0065641D02*
X0050119Y0065641D01*
X0050119Y0065042D02*
X0050719Y0065042D01*
X0050719Y0064444D02*
X0050119Y0064444D01*
X0050119Y0063845D02*
X0050719Y0063845D01*
X0050719Y0063247D02*
X0050119Y0063247D01*
X0050119Y0062648D02*
X0050719Y0062648D01*
X0050754Y0062050D02*
X0050119Y0062050D01*
X0050119Y0061451D02*
X0051353Y0061451D01*
X0051951Y0060853D02*
X0050346Y0060853D01*
X0050944Y0060254D02*
X0052550Y0060254D01*
X0051543Y0059656D02*
X0065057Y0059656D01*
X0065656Y0059057D02*
X0052141Y0059057D01*
X0052740Y0058459D02*
X0071519Y0058459D01*
X0071519Y0057860D02*
X0053338Y0057860D01*
X0053937Y0057262D02*
X0071519Y0057262D01*
X0071519Y0056663D02*
X0054535Y0056663D01*
X0055134Y0056065D02*
X0071519Y0056065D01*
X0071519Y0055466D02*
X0055732Y0055466D01*
X0056331Y0054868D02*
X0071519Y0054868D01*
X0071519Y0054269D02*
X0056929Y0054269D01*
X0057528Y0053671D02*
X0071519Y0053671D01*
X0071519Y0053072D02*
X0058126Y0053072D01*
X0058725Y0052474D02*
X0071519Y0052474D01*
X0071519Y0051875D02*
X0059323Y0051875D01*
X0059922Y0051277D02*
X0071519Y0051277D01*
X0071519Y0050678D02*
X0060520Y0050678D01*
X0061119Y0050080D02*
X0071519Y0050080D01*
X0071519Y0049481D02*
X0061717Y0049481D01*
X0062316Y0048883D02*
X0071519Y0048883D01*
X0071519Y0048284D02*
X0062914Y0048284D01*
X0063513Y0047686D02*
X0071519Y0047686D01*
X0071519Y0047087D02*
X0064111Y0047087D01*
X0064710Y0046489D02*
X0071519Y0046489D01*
X0071519Y0045890D02*
X0065308Y0045890D01*
X0065907Y0045292D02*
X0068446Y0045292D01*
X0068020Y0042299D02*
X0017019Y0042299D01*
X0017019Y0041701D02*
X0068619Y0041701D01*
X0071392Y0045292D02*
X0071519Y0045292D01*
X0078319Y0045292D02*
X0112819Y0045292D01*
X0112819Y0045890D02*
X0078319Y0045890D01*
X0078319Y0046489D02*
X0078831Y0046489D01*
X0078319Y0044693D02*
X0112819Y0044693D01*
X0112819Y0044095D02*
X0078319Y0044095D01*
X0078319Y0043496D02*
X0112819Y0043496D01*
X0112819Y0042898D02*
X0078319Y0042898D01*
X0078319Y0042299D02*
X0112819Y0042299D01*
X0112819Y0041701D02*
X0078319Y0041701D01*
X0078319Y0041102D02*
X0112819Y0041102D01*
X0112819Y0040503D02*
X0078319Y0040503D01*
X0078319Y0039905D02*
X0112819Y0039905D01*
X0112819Y0039306D02*
X0078319Y0039306D01*
X0078319Y0038708D02*
X0112819Y0038708D01*
X0112819Y0038109D02*
X0078319Y0038109D01*
X0078319Y0037511D02*
X0112819Y0037511D01*
X0112819Y0036912D02*
X0078319Y0036912D01*
X0078074Y0036314D02*
X0112819Y0036314D01*
X0112819Y0035715D02*
X0077826Y0035715D01*
X0077262Y0035117D02*
X0112819Y0035117D01*
X0112819Y0034518D02*
X0076663Y0034518D01*
X0076065Y0033920D02*
X0112819Y0033920D01*
X0112819Y0033321D02*
X0075466Y0033321D01*
X0074868Y0032723D02*
X0112819Y0032723D01*
X0112819Y0032124D02*
X0074269Y0032124D01*
X0073671Y0031526D02*
X0112819Y0031526D01*
X0112819Y0030927D02*
X0073072Y0030927D01*
X0072474Y0030329D02*
X0112819Y0030329D01*
X0112819Y0029730D02*
X0071875Y0029730D01*
X0071277Y0029132D02*
X0112819Y0029132D01*
X0112819Y0028533D02*
X0070678Y0028533D01*
X0070080Y0027935D02*
X0112819Y0027935D01*
X0112819Y0027336D02*
X0103929Y0027336D01*
X0104231Y0027276D02*
X0103578Y0027406D01*
X0103546Y0027406D01*
X0103546Y0024328D01*
X0106624Y0024328D01*
X0106624Y0024361D01*
X0106494Y0025013D01*
X0106239Y0025628D01*
X0105870Y0026181D01*
X0105399Y0026652D01*
X0104846Y0027022D01*
X0104231Y0027276D01*
X0103546Y0027336D02*
X0102946Y0027336D01*
X0102946Y0027406D02*
X0102946Y0024328D01*
X0103546Y0024328D01*
X0103546Y0023728D01*
X0106624Y0023728D01*
X0106624Y0023695D01*
X0106494Y0023043D01*
X0106239Y0022428D01*
X0105870Y0021875D01*
X0105399Y0021404D01*
X0104846Y0021035D01*
X0104231Y0020780D01*
X0103578Y0020650D01*
X0103546Y0020650D01*
X0103546Y0023728D01*
X0102946Y0023728D01*
X0102946Y0020650D01*
X0102913Y0020650D01*
X0102260Y0020780D01*
X0101646Y0021035D01*
X0101092Y0021404D01*
X0100622Y0021875D01*
X0100252Y0022428D01*
X0099998Y0023043D01*
X0099868Y0023695D01*
X0099868Y0023728D01*
X0102946Y0023728D01*
X0102946Y0024328D01*
X0099868Y0024328D01*
X0099868Y0024361D01*
X0099998Y0025013D01*
X0100252Y0025628D01*
X0100622Y0026181D01*
X0101092Y0026652D01*
X0101646Y0027022D01*
X0102260Y0027276D01*
X0102913Y0027406D01*
X0102946Y0027406D01*
X0102562Y0027336D02*
X0082276Y0027336D01*
X0082578Y0027276D02*
X0081925Y0027406D01*
X0081892Y0027406D01*
X0081892Y0024328D01*
X0081292Y0024328D01*
X0081292Y0023728D01*
X0081892Y0023728D01*
X0081892Y0020650D01*
X0081925Y0020650D01*
X0082578Y0020780D01*
X0083192Y0021035D01*
X0083746Y0021404D01*
X0084216Y0021875D01*
X0084586Y0022428D01*
X0084840Y0023043D01*
X0084970Y0023695D01*
X0084970Y0023728D01*
X0081892Y0023728D01*
X0081892Y0024328D01*
X0084970Y0024328D01*
X0084970Y0024361D01*
X0084840Y0025013D01*
X0084586Y0025628D01*
X0084216Y0026181D01*
X0083746Y0026652D01*
X0083192Y0027022D01*
X0082578Y0027276D01*
X0081892Y0027336D02*
X0081292Y0027336D01*
X0081292Y0027406D02*
X0081292Y0024328D01*
X0078214Y0024328D01*
X0078214Y0024361D01*
X0078344Y0025013D01*
X0078599Y0025628D01*
X0078968Y0026181D01*
X0079439Y0026652D01*
X0079992Y0027022D01*
X0080607Y0027276D01*
X0081260Y0027406D01*
X0081292Y0027406D01*
X0080909Y0027336D02*
X0069481Y0027336D01*
X0068883Y0026738D02*
X0079567Y0026738D01*
X0078940Y0026139D02*
X0068284Y0026139D01*
X0067686Y0025541D02*
X0078563Y0025541D01*
X0078330Y0024942D02*
X0067087Y0024942D01*
X0066489Y0024344D02*
X0078214Y0024344D01*
X0078323Y0023147D02*
X0065292Y0023147D01*
X0065890Y0023745D02*
X0081292Y0023745D01*
X0081292Y0023147D02*
X0081892Y0023147D01*
X0081892Y0023745D02*
X0102946Y0023745D01*
X0102946Y0023147D02*
X0103546Y0023147D01*
X0103546Y0023745D02*
X0112819Y0023745D01*
X0112819Y0023147D02*
X0106515Y0023147D01*
X0106289Y0022548D02*
X0112819Y0022548D01*
X0112819Y0021950D02*
X0105920Y0021950D01*
X0105320Y0021351D02*
X0112819Y0021351D01*
X0112819Y0020753D02*
X0104094Y0020753D01*
X0103546Y0020753D02*
X0102946Y0020753D01*
X0102398Y0020753D02*
X0082440Y0020753D01*
X0081892Y0020753D02*
X0081292Y0020753D01*
X0081292Y0021351D02*
X0081892Y0021351D01*
X0081892Y0021950D02*
X0081292Y0021950D01*
X0081292Y0022548D02*
X0081892Y0022548D01*
X0081892Y0024344D02*
X0081292Y0024344D01*
X0081292Y0024942D02*
X0081892Y0024942D01*
X0081892Y0025541D02*
X0081292Y0025541D01*
X0081292Y0026139D02*
X0081892Y0026139D01*
X0081892Y0026738D02*
X0081292Y0026738D01*
X0083617Y0026738D02*
X0101221Y0026738D01*
X0100594Y0026139D02*
X0084244Y0026139D01*
X0084622Y0025541D02*
X0100216Y0025541D01*
X0099983Y0024942D02*
X0084855Y0024942D01*
X0084970Y0024344D02*
X0099868Y0024344D01*
X0099977Y0023147D02*
X0084861Y0023147D01*
X0084635Y0022548D02*
X0100202Y0022548D01*
X0100572Y0021950D02*
X0084266Y0021950D01*
X0083666Y0021351D02*
X0101172Y0021351D01*
X0102946Y0021351D02*
X0103546Y0021351D01*
X0103546Y0021950D02*
X0102946Y0021950D01*
X0102946Y0022548D02*
X0103546Y0022548D01*
X0103546Y0024344D02*
X0102946Y0024344D01*
X0102946Y0024942D02*
X0103546Y0024942D01*
X0103546Y0025541D02*
X0102946Y0025541D01*
X0102946Y0026139D02*
X0103546Y0026139D01*
X0103546Y0026738D02*
X0102946Y0026738D01*
X0105271Y0026738D02*
X0112819Y0026738D01*
X0112819Y0026139D02*
X0105898Y0026139D01*
X0106275Y0025541D02*
X0112819Y0025541D01*
X0112819Y0024942D02*
X0106508Y0024942D01*
X0106624Y0024344D02*
X0112819Y0024344D01*
X0112819Y0046489D02*
X0081007Y0046489D01*
X0081606Y0047087D02*
X0112819Y0047087D01*
X0112819Y0047686D02*
X0094204Y0047686D01*
X0094803Y0048284D02*
X0112819Y0048284D01*
X0112819Y0048883D02*
X0095169Y0048883D01*
X0095169Y0049481D02*
X0112819Y0049481D01*
X0112819Y0050080D02*
X0095169Y0050080D01*
X0095005Y0050678D02*
X0112819Y0050678D01*
X0112819Y0051277D02*
X0094407Y0051277D01*
X0092919Y0049582D02*
X0091919Y0048582D01*
X0079919Y0048582D01*
X0081604Y0050080D02*
X0090669Y0050080D01*
X0090833Y0050678D02*
X0081005Y0050678D01*
X0078833Y0050678D02*
X0078319Y0050678D01*
X0078319Y0051277D02*
X0091431Y0051277D01*
X0083070Y0061451D02*
X0106019Y0061451D01*
X0106019Y0060853D02*
X0078319Y0060853D01*
X0078319Y0061451D02*
X0080168Y0061451D01*
X0079570Y0062050D02*
X0078319Y0062050D01*
X0078319Y0062648D02*
X0079369Y0062648D01*
X0079369Y0063247D02*
X0078319Y0063247D01*
X0078319Y0063845D02*
X0079369Y0063845D01*
X0079699Y0064444D02*
X0078319Y0064444D01*
X0078319Y0065042D02*
X0080297Y0065042D01*
X0078319Y0065641D02*
X0090563Y0065641D01*
X0089965Y0066239D02*
X0078319Y0066239D01*
X0078319Y0066838D02*
X0089366Y0066838D01*
X0088768Y0067437D02*
X0078319Y0067437D01*
X0078319Y0068035D02*
X0088169Y0068035D01*
X0087571Y0068634D02*
X0078319Y0068634D01*
X0078319Y0069232D02*
X0086972Y0069232D01*
X0086374Y0069831D02*
X0078319Y0069831D01*
X0078319Y0070429D02*
X0085775Y0070429D01*
X0085177Y0071028D02*
X0078319Y0071028D01*
X0078319Y0071626D02*
X0084578Y0071626D01*
X0083980Y0072225D02*
X0078319Y0072225D01*
X0078319Y0072823D02*
X0081496Y0072823D01*
X0080898Y0073422D02*
X0078319Y0073422D01*
X0078319Y0074020D02*
X0080469Y0074020D01*
X0080469Y0074619D02*
X0078319Y0074619D01*
X0078319Y0075217D02*
X0080469Y0075217D01*
X0080570Y0075816D02*
X0078319Y0075816D01*
X0078319Y0076414D02*
X0081169Y0076414D01*
X0081131Y0077013D02*
X0081767Y0077013D01*
X0081730Y0077611D02*
X0082393Y0077611D01*
X0083319Y0078382D02*
X0083319Y0080182D01*
X0081519Y0081982D01*
X0081519Y0092182D01*
X0082719Y0089182D02*
X0084519Y0090982D01*
X0084519Y0096982D01*
X0084719Y0097182D01*
X0086319Y0099982D02*
X0087519Y0098782D01*
X0087519Y0089982D01*
X0086519Y0088982D01*
X0082719Y0089182D02*
X0082719Y0083782D01*
X0085119Y0081382D01*
X0085119Y0078382D01*
X0086919Y0076582D01*
X0092319Y0076582D01*
X0096519Y0080782D01*
X0096519Y0094582D01*
X0089919Y0101182D01*
X0089919Y0105382D01*
X0090519Y0105982D01*
X0090519Y0112582D01*
X0085719Y0117382D01*
X0085719Y0122782D01*
X0082119Y0126382D01*
X0082119Y0142582D01*
X0088719Y0149182D01*
X0089119Y0149182D01*
X0088319Y0146382D02*
X0090719Y0146382D01*
X0092319Y0147982D01*
X0092319Y0152182D01*
X0089419Y0155082D01*
X0087050Y0158410D02*
X0064519Y0158410D01*
X0064519Y0157812D02*
X0086451Y0157812D01*
X0085853Y0157213D02*
X0064519Y0157213D01*
X0064519Y0156615D02*
X0085254Y0156615D01*
X0084656Y0156016D02*
X0075867Y0156016D01*
X0075651Y0156232D02*
X0073787Y0156232D01*
X0072469Y0154914D01*
X0072469Y0153050D01*
X0073787Y0151732D01*
X0075272Y0151732D01*
X0078519Y0148485D01*
X0078519Y0124685D01*
X0079222Y0123982D01*
X0080572Y0122632D01*
X0079387Y0122632D01*
X0078319Y0121564D01*
X0078319Y0122259D01*
X0077801Y0123508D01*
X0073601Y0127708D01*
X0072645Y0128665D01*
X0071395Y0129182D01*
X0066727Y0129182D01*
X0064519Y0131391D01*
X0064519Y0163182D01*
X0075595Y0163182D01*
X0076845Y0163700D01*
X0077801Y0164656D01*
X0078319Y0165906D01*
X0078319Y0167259D01*
X0077801Y0168508D01*
X0076845Y0169465D01*
X0075595Y0169982D01*
X0064519Y0169982D01*
X0064519Y0214182D01*
X0075595Y0214182D01*
X0076845Y0214700D01*
X0077801Y0215656D01*
X0078319Y0216906D01*
X0078319Y0218259D01*
X0077801Y0219508D01*
X0076845Y0220465D01*
X0075595Y0220982D01*
X0064519Y0220982D01*
X0064519Y0244659D01*
X0064001Y0245908D01*
X0063045Y0246865D01*
X0061795Y0247382D01*
X0060443Y0247382D01*
X0060000Y0247199D01*
X0053169Y0254029D01*
X0053169Y0255514D01*
X0051851Y0256832D01*
X0049987Y0256832D01*
X0048669Y0255514D01*
X0048669Y0253650D01*
X0049987Y0252332D01*
X0051472Y0252332D01*
X0058137Y0245667D01*
X0057719Y0244659D01*
X0057719Y0233182D01*
X0052512Y0233182D01*
X0052512Y0233458D01*
X0051194Y0234776D01*
X0049330Y0234776D01*
X0048012Y0233458D01*
X0048012Y0231594D01*
X0049330Y0230276D01*
X0051194Y0230276D01*
X0051701Y0230782D01*
X0057719Y0230782D01*
X0057719Y0200782D01*
X0056416Y0200782D01*
X0056169Y0201029D01*
X0056169Y0202514D01*
X0054851Y0203832D01*
X0052987Y0203832D01*
X0051669Y0202514D01*
X0051669Y0200650D01*
X0052987Y0199332D01*
X0054472Y0199332D01*
X0054719Y0199085D01*
X0055422Y0198382D01*
X0057719Y0198382D01*
X0057719Y0180982D01*
X0052216Y0180982D01*
X0052169Y0181029D01*
X0052169Y0182514D01*
X0050851Y0183832D01*
X0048987Y0183832D01*
X0047669Y0182514D01*
X0047669Y0180650D01*
X0048987Y0179332D01*
X0050472Y0179332D01*
X0050519Y0179285D01*
X0051222Y0178582D01*
X0054137Y0178582D01*
X0053337Y0177782D01*
X0042416Y0177782D01*
X0041119Y0179079D01*
X0041119Y0180200D01*
X0041987Y0179332D01*
X0043851Y0179332D01*
X0045169Y0180650D01*
X0045169Y0182514D01*
X0044119Y0183564D01*
X0044119Y0191600D01*
X0045169Y0192650D01*
X0045169Y0194514D01*
X0043851Y0195832D01*
X0041987Y0195832D01*
X0041119Y0194964D01*
X0041119Y0196079D01*
X0038969Y0198229D01*
X0038969Y0199714D01*
X0037651Y0201032D01*
X0035787Y0201032D01*
X0034719Y0199964D01*
X0034719Y0204485D01*
X0040016Y0209782D01*
X0040719Y0210485D01*
X0040719Y0213879D01*
X0032919Y0221679D01*
X0032919Y0260182D01*
X0070822Y0260182D01*
X0073869Y0257135D01*
X0073869Y0255650D01*
X0075187Y0254332D01*
X0077051Y0254332D01*
X0078369Y0255650D01*
X0078369Y0257514D01*
X0077051Y0258832D01*
X0075566Y0258832D01*
X0073016Y0261382D01*
X0086319Y0261382D01*
X0086319Y0253334D01*
X0086670Y0252982D01*
X0088137Y0252982D01*
X0087169Y0252014D01*
X0087169Y0250150D01*
X0088219Y0249100D01*
X0088219Y0227785D01*
X0088922Y0227082D01*
X0100119Y0215885D01*
X0100119Y0211564D01*
X0098851Y0212832D01*
X0096987Y0212832D01*
X0095669Y0211514D01*
X0095669Y0210029D01*
X0085119Y0199479D01*
X0085119Y0177685D01*
X0085822Y0176982D01*
X0089719Y0173085D01*
X0089719Y0161079D01*
X0084422Y0155782D01*
X0083422Y0155782D01*
X0082719Y0155079D01*
X0079719Y0152079D01*
X0079719Y0150679D01*
X0076969Y0153429D01*
X0076969Y0154914D01*
X0075651Y0156232D01*
X0076466Y0155418D02*
X0083057Y0155418D01*
X0082459Y0154819D02*
X0076969Y0154819D01*
X0076969Y0154221D02*
X0081860Y0154221D01*
X0081262Y0153622D02*
X0076969Y0153622D01*
X0077375Y0153024D02*
X0080663Y0153024D01*
X0080065Y0152425D02*
X0077973Y0152425D01*
X0078572Y0151827D02*
X0079719Y0151827D01*
X0079719Y0151228D02*
X0079170Y0151228D01*
X0080919Y0151582D02*
X0083919Y0154582D01*
X0084919Y0154582D01*
X0090919Y0160582D01*
X0090919Y0173582D01*
X0086319Y0178182D01*
X0086319Y0198982D01*
X0097919Y0210582D01*
X0096431Y0212276D02*
X0064519Y0212276D01*
X0064519Y0211678D02*
X0095832Y0211678D01*
X0095669Y0211079D02*
X0064519Y0211079D01*
X0064519Y0210481D02*
X0095669Y0210481D01*
X0095522Y0209882D02*
X0064519Y0209882D01*
X0064519Y0209284D02*
X0094923Y0209284D01*
X0094325Y0208685D02*
X0064519Y0208685D01*
X0064519Y0208087D02*
X0093726Y0208087D01*
X0093128Y0207488D02*
X0064519Y0207488D01*
X0064519Y0206890D02*
X0092529Y0206890D01*
X0091931Y0206291D02*
X0064519Y0206291D01*
X0064519Y0205693D02*
X0091332Y0205693D01*
X0090734Y0205094D02*
X0064519Y0205094D01*
X0064519Y0204496D02*
X0090135Y0204496D01*
X0089537Y0203897D02*
X0064519Y0203897D01*
X0064519Y0203299D02*
X0088938Y0203299D01*
X0088340Y0202700D02*
X0064519Y0202700D01*
X0064519Y0202102D02*
X0087741Y0202102D01*
X0087143Y0201503D02*
X0064519Y0201503D01*
X0064519Y0200905D02*
X0086544Y0200905D01*
X0085946Y0200306D02*
X0064519Y0200306D01*
X0064519Y0199708D02*
X0085347Y0199708D01*
X0085119Y0199109D02*
X0064519Y0199109D01*
X0064519Y0198510D02*
X0085119Y0198510D01*
X0085119Y0197912D02*
X0064519Y0197912D01*
X0064519Y0197313D02*
X0085119Y0197313D01*
X0085119Y0196715D02*
X0064519Y0196715D01*
X0064519Y0196116D02*
X0085119Y0196116D01*
X0085119Y0195518D02*
X0064519Y0195518D01*
X0064519Y0194919D02*
X0085119Y0194919D01*
X0085119Y0194321D02*
X0064519Y0194321D01*
X0064519Y0193722D02*
X0085119Y0193722D01*
X0085119Y0193124D02*
X0064519Y0193124D01*
X0064519Y0192525D02*
X0085119Y0192525D01*
X0085119Y0191927D02*
X0064519Y0191927D01*
X0064519Y0191328D02*
X0085119Y0191328D01*
X0085119Y0190730D02*
X0064519Y0190730D01*
X0064519Y0190131D02*
X0085119Y0190131D01*
X0085119Y0189533D02*
X0064519Y0189533D01*
X0064519Y0188934D02*
X0085119Y0188934D01*
X0085119Y0188336D02*
X0064519Y0188336D01*
X0064519Y0187737D02*
X0085119Y0187737D01*
X0085119Y0187139D02*
X0064519Y0187139D01*
X0064519Y0186540D02*
X0085119Y0186540D01*
X0085119Y0185942D02*
X0064519Y0185942D01*
X0064519Y0185343D02*
X0085119Y0185343D01*
X0085119Y0184745D02*
X0064519Y0184745D01*
X0064519Y0184146D02*
X0085119Y0184146D01*
X0085119Y0183548D02*
X0064519Y0183548D01*
X0064519Y0182949D02*
X0085119Y0182949D01*
X0085119Y0182351D02*
X0064519Y0182351D01*
X0064519Y0181752D02*
X0085119Y0181752D01*
X0085119Y0181154D02*
X0064519Y0181154D01*
X0064519Y0180555D02*
X0085119Y0180555D01*
X0085119Y0179957D02*
X0064519Y0179957D01*
X0064519Y0179358D02*
X0085119Y0179358D01*
X0085119Y0178760D02*
X0064519Y0178760D01*
X0064519Y0178161D02*
X0085119Y0178161D01*
X0085242Y0177563D02*
X0064519Y0177563D01*
X0064519Y0176964D02*
X0085840Y0176964D01*
X0086439Y0176366D02*
X0064519Y0176366D01*
X0064519Y0175767D02*
X0087037Y0175767D01*
X0087636Y0175169D02*
X0064519Y0175169D01*
X0064519Y0174570D02*
X0088234Y0174570D01*
X0088833Y0173972D02*
X0064519Y0173972D01*
X0064519Y0173373D02*
X0089431Y0173373D01*
X0089719Y0172774D02*
X0064519Y0172774D01*
X0064519Y0172176D02*
X0089719Y0172176D01*
X0089719Y0171577D02*
X0064519Y0171577D01*
X0064519Y0170979D02*
X0089719Y0170979D01*
X0089719Y0170380D02*
X0064519Y0170380D01*
X0064519Y0162600D02*
X0089719Y0162600D01*
X0089719Y0163198D02*
X0075634Y0163198D01*
X0076942Y0163797D02*
X0089719Y0163797D01*
X0089719Y0164395D02*
X0077540Y0164395D01*
X0077941Y0164994D02*
X0089719Y0164994D01*
X0089719Y0165592D02*
X0078189Y0165592D01*
X0078319Y0166191D02*
X0089719Y0166191D01*
X0089719Y0166789D02*
X0078319Y0166789D01*
X0078265Y0167388D02*
X0089719Y0167388D01*
X0089719Y0167986D02*
X0078018Y0167986D01*
X0077725Y0168585D02*
X0089719Y0168585D01*
X0089719Y0169183D02*
X0077126Y0169183D01*
X0076079Y0169782D02*
X0089719Y0169782D01*
X0092919Y0166582D02*
X0092919Y0154582D01*
X0093519Y0153982D01*
X0093519Y0145382D01*
X0094319Y0144582D01*
X0094319Y0140882D01*
X0092019Y0138582D01*
X0092019Y0134782D01*
X0091619Y0134382D01*
X0091619Y0118382D01*
X0094119Y0115882D01*
X0094119Y0107482D01*
X0096819Y0104782D01*
X0096819Y0102982D01*
X0099719Y0100082D01*
X0101819Y0100082D01*
X0103119Y0098782D01*
X0103119Y0096982D01*
X0101919Y0095782D01*
X0101919Y0090482D01*
X0104519Y0087682D02*
X0107919Y0091082D01*
X0107919Y0101582D01*
X0105919Y0103582D01*
X0100819Y0103582D01*
X0099219Y0105182D01*
X0099219Y0105782D01*
X0096519Y0108482D01*
X0096519Y0117982D01*
X0094719Y0119782D01*
X0094719Y0137182D01*
X0096719Y0139182D01*
X0096719Y0145982D01*
X0095919Y0146782D01*
X0095919Y0156382D01*
X0095319Y0156982D01*
X0095319Y0165382D01*
X0105119Y0175182D01*
X0105119Y0182582D01*
X0106719Y0179182D02*
X0108519Y0180982D01*
X0108519Y0192482D01*
X0106619Y0194382D01*
X0109719Y0196882D02*
X0101319Y0205282D01*
X0101319Y0216382D01*
X0089419Y0228282D01*
X0089419Y0251082D01*
X0087169Y0251179D02*
X0056019Y0251179D01*
X0056617Y0250581D02*
X0087169Y0250581D01*
X0087337Y0249982D02*
X0057216Y0249982D01*
X0057814Y0249384D02*
X0087935Y0249384D01*
X0088219Y0248785D02*
X0058413Y0248785D01*
X0059012Y0248187D02*
X0088219Y0248187D01*
X0088219Y0247588D02*
X0059610Y0247588D01*
X0058011Y0245793D02*
X0044890Y0245793D01*
X0045169Y0245514D02*
X0043851Y0246832D01*
X0041987Y0246832D01*
X0041119Y0245964D01*
X0041119Y0248130D01*
X0038994Y0250255D01*
X0038994Y0251740D01*
X0037676Y0253058D01*
X0035812Y0253058D01*
X0034494Y0251740D01*
X0034494Y0249876D01*
X0035812Y0248558D01*
X0037297Y0248558D01*
X0038719Y0247136D01*
X0038719Y0228085D01*
X0039422Y0227382D01*
X0040422Y0226382D01*
X0053337Y0226382D01*
X0054387Y0225332D01*
X0056251Y0225332D01*
X0057569Y0226650D01*
X0057569Y0228514D01*
X0056251Y0229832D01*
X0054387Y0229832D01*
X0053337Y0228782D01*
X0041416Y0228782D01*
X0041119Y0229079D01*
X0041119Y0232200D01*
X0041987Y0231332D01*
X0043851Y0231332D01*
X0045169Y0232650D01*
X0045169Y0234514D01*
X0044119Y0235564D01*
X0044119Y0242600D01*
X0045169Y0243650D01*
X0045169Y0245514D01*
X0045169Y0245194D02*
X0057941Y0245194D01*
X0057719Y0244596D02*
X0045169Y0244596D01*
X0045169Y0243997D02*
X0057719Y0243997D01*
X0057719Y0243399D02*
X0044917Y0243399D01*
X0044319Y0242800D02*
X0057719Y0242800D01*
X0057719Y0242202D02*
X0044119Y0242202D01*
X0044119Y0241603D02*
X0057719Y0241603D01*
X0057719Y0241005D02*
X0044119Y0241005D01*
X0044119Y0240406D02*
X0057719Y0240406D01*
X0057719Y0239808D02*
X0044119Y0239808D01*
X0044119Y0239209D02*
X0057719Y0239209D01*
X0057719Y0238611D02*
X0044119Y0238611D01*
X0044119Y0238012D02*
X0057719Y0238012D01*
X0057719Y0237414D02*
X0044119Y0237414D01*
X0044119Y0236815D02*
X0057719Y0236815D01*
X0057719Y0236217D02*
X0044119Y0236217D01*
X0044119Y0235618D02*
X0057719Y0235618D01*
X0057719Y0235020D02*
X0044664Y0235020D01*
X0045169Y0234421D02*
X0048976Y0234421D01*
X0048377Y0233823D02*
X0045169Y0233823D01*
X0045169Y0233224D02*
X0048012Y0233224D01*
X0048012Y0232626D02*
X0045144Y0232626D01*
X0044546Y0232027D02*
X0048012Y0232027D01*
X0048177Y0231429D02*
X0043947Y0231429D01*
X0041891Y0231429D02*
X0041119Y0231429D01*
X0041119Y0232027D02*
X0041292Y0232027D01*
X0041119Y0230830D02*
X0048776Y0230830D01*
X0050262Y0232526D02*
X0050806Y0231982D01*
X0061119Y0231982D01*
X0064519Y0232027D02*
X0088219Y0232027D01*
X0088219Y0231429D02*
X0064519Y0231429D01*
X0064519Y0230830D02*
X0088219Y0230830D01*
X0088219Y0230232D02*
X0064519Y0230232D01*
X0064519Y0229633D02*
X0088219Y0229633D01*
X0088219Y0229035D02*
X0064519Y0229035D01*
X0064519Y0228436D02*
X0088219Y0228436D01*
X0088219Y0227838D02*
X0064519Y0227838D01*
X0064519Y0227239D02*
X0088765Y0227239D01*
X0089364Y0226641D02*
X0064519Y0226641D01*
X0064519Y0226042D02*
X0089962Y0226042D01*
X0090561Y0225443D02*
X0064519Y0225443D01*
X0064519Y0224845D02*
X0091159Y0224845D01*
X0091758Y0224246D02*
X0064519Y0224246D01*
X0064519Y0223648D02*
X0092356Y0223648D01*
X0092955Y0223049D02*
X0064519Y0223049D01*
X0064519Y0222451D02*
X0093553Y0222451D01*
X0094152Y0221852D02*
X0064519Y0221852D01*
X0064519Y0221254D02*
X0094750Y0221254D01*
X0095349Y0220655D02*
X0076385Y0220655D01*
X0077253Y0220057D02*
X0095947Y0220057D01*
X0096546Y0219458D02*
X0077822Y0219458D01*
X0078070Y0218860D02*
X0097144Y0218860D01*
X0097743Y0218261D02*
X0078318Y0218261D01*
X0078319Y0217663D02*
X0098341Y0217663D01*
X0098940Y0217064D02*
X0078319Y0217064D01*
X0078137Y0216466D02*
X0099539Y0216466D01*
X0100119Y0215867D02*
X0077889Y0215867D01*
X0077414Y0215269D02*
X0100119Y0215269D01*
X0100119Y0214670D02*
X0076773Y0214670D01*
X0088219Y0232626D02*
X0064519Y0232626D01*
X0064519Y0233224D02*
X0088219Y0233224D01*
X0088219Y0233823D02*
X0064519Y0233823D01*
X0064519Y0234421D02*
X0088219Y0234421D01*
X0088219Y0235020D02*
X0064519Y0235020D01*
X0064519Y0235618D02*
X0088219Y0235618D01*
X0088219Y0236217D02*
X0064519Y0236217D01*
X0064519Y0236815D02*
X0088219Y0236815D01*
X0088219Y0237414D02*
X0064519Y0237414D01*
X0064519Y0238012D02*
X0088219Y0238012D01*
X0088219Y0238611D02*
X0064519Y0238611D01*
X0064519Y0239209D02*
X0088219Y0239209D01*
X0088219Y0239808D02*
X0064519Y0239808D01*
X0064519Y0240406D02*
X0088219Y0240406D01*
X0088219Y0241005D02*
X0064519Y0241005D01*
X0064519Y0241603D02*
X0088219Y0241603D01*
X0088219Y0242202D02*
X0064519Y0242202D01*
X0064519Y0242800D02*
X0088219Y0242800D01*
X0088219Y0243399D02*
X0064519Y0243399D01*
X0064519Y0243997D02*
X0088219Y0243997D01*
X0088219Y0244596D02*
X0064519Y0244596D01*
X0064297Y0245194D02*
X0088219Y0245194D01*
X0088219Y0245793D02*
X0064049Y0245793D01*
X0063518Y0246391D02*
X0088219Y0246391D01*
X0088219Y0246990D02*
X0062743Y0246990D01*
X0061119Y0244382D02*
X0050919Y0254582D01*
X0049344Y0252975D02*
X0037759Y0252975D01*
X0038357Y0252377D02*
X0049943Y0252377D01*
X0048746Y0253574D02*
X0032919Y0253574D01*
X0032919Y0254172D02*
X0048669Y0254172D01*
X0048669Y0254771D02*
X0032919Y0254771D01*
X0032919Y0255369D02*
X0048669Y0255369D01*
X0049122Y0255968D02*
X0032919Y0255968D01*
X0032919Y0256566D02*
X0049721Y0256566D01*
X0052117Y0256566D02*
X0073869Y0256566D01*
X0073869Y0255968D02*
X0052716Y0255968D01*
X0053169Y0255369D02*
X0074150Y0255369D01*
X0074749Y0254771D02*
X0053169Y0254771D01*
X0053169Y0254172D02*
X0086319Y0254172D01*
X0086319Y0253574D02*
X0053625Y0253574D01*
X0054223Y0252975D02*
X0088130Y0252975D01*
X0087531Y0252377D02*
X0054822Y0252377D01*
X0055420Y0251778D02*
X0087169Y0251778D01*
X0086319Y0254771D02*
X0077489Y0254771D01*
X0078088Y0255369D02*
X0086319Y0255369D01*
X0086319Y0255968D02*
X0078369Y0255968D01*
X0078369Y0256566D02*
X0086319Y0256566D01*
X0086319Y0257165D02*
X0078369Y0257165D01*
X0078120Y0257763D02*
X0086319Y0257763D01*
X0086319Y0258362D02*
X0077522Y0258362D01*
X0076119Y0256582D02*
X0071319Y0261382D01*
X0032319Y0261382D01*
X0031719Y0260782D01*
X0031719Y0221182D01*
X0039519Y0213382D01*
X0039519Y0210982D01*
X0033519Y0204982D01*
X0033519Y0141982D01*
X0035919Y0139582D01*
X0035919Y0128582D01*
X0057919Y0106582D01*
X0060119Y0106582D01*
X0061748Y0108135D02*
X0063269Y0108135D01*
X0063519Y0107537D02*
X0062347Y0107537D01*
X0062369Y0106938D02*
X0063519Y0106938D01*
X0063519Y0106340D02*
X0062369Y0106340D01*
X0062369Y0105741D02*
X0063519Y0105741D01*
X0063519Y0105143D02*
X0061861Y0105143D01*
X0061263Y0104544D02*
X0063519Y0104544D01*
X0063519Y0103946D02*
X0060138Y0103946D01*
X0060736Y0103347D02*
X0063519Y0103347D01*
X0063519Y0102749D02*
X0061269Y0102749D01*
X0061269Y0102150D02*
X0063519Y0102150D01*
X0063519Y0101552D02*
X0061269Y0101552D01*
X0061645Y0100953D02*
X0063519Y0100953D01*
X0063519Y0100355D02*
X0062119Y0100355D01*
X0062119Y0099756D02*
X0063519Y0099756D01*
X0063519Y0099158D02*
X0062119Y0099158D01*
X0062119Y0098559D02*
X0063519Y0098559D01*
X0063519Y0097961D02*
X0062119Y0097961D01*
X0062119Y0097362D02*
X0063519Y0097362D01*
X0063519Y0096764D02*
X0062119Y0096764D01*
X0062119Y0096165D02*
X0063633Y0096165D01*
X0064232Y0095567D02*
X0062119Y0095567D01*
X0062119Y0094968D02*
X0064756Y0094968D01*
X0064756Y0094370D02*
X0062119Y0094370D01*
X0062119Y0093771D02*
X0064842Y0093771D01*
X0065441Y0093172D02*
X0062119Y0093172D01*
X0062119Y0092574D02*
X0066039Y0092574D01*
X0067974Y0092574D02*
X0068919Y0092574D01*
X0068919Y0093172D02*
X0068572Y0093172D01*
X0068919Y0091975D02*
X0062119Y0091975D01*
X0062119Y0091377D02*
X0068919Y0091377D01*
X0068919Y0090778D02*
X0062119Y0090778D01*
X0062119Y0090180D02*
X0068919Y0090180D01*
X0068919Y0089581D02*
X0062119Y0089581D01*
X0062119Y0088983D02*
X0068622Y0088983D01*
X0070119Y0088782D02*
X0067719Y0086382D01*
X0066126Y0084793D02*
X0062119Y0084793D01*
X0062119Y0084195D02*
X0066725Y0084195D01*
X0065528Y0085392D02*
X0062119Y0085392D01*
X0062119Y0085990D02*
X0065469Y0085990D01*
X0065469Y0086589D02*
X0062119Y0086589D01*
X0062119Y0087187D02*
X0065469Y0087187D01*
X0065941Y0087786D02*
X0062119Y0087786D01*
X0062119Y0088384D02*
X0066539Y0088384D01*
X0069312Y0084793D02*
X0070119Y0084793D01*
X0070119Y0084195D02*
X0068713Y0084195D01*
X0070119Y0083596D02*
X0062119Y0083596D01*
X0062119Y0082998D02*
X0070119Y0082998D01*
X0070119Y0082399D02*
X0062119Y0082399D01*
X0062119Y0081801D02*
X0070119Y0081801D01*
X0070119Y0081202D02*
X0062119Y0081202D01*
X0062119Y0080604D02*
X0068758Y0080604D01*
X0068160Y0080005D02*
X0062119Y0080005D01*
X0062119Y0079407D02*
X0067669Y0079407D01*
X0067669Y0078808D02*
X0062119Y0078808D01*
X0062119Y0078210D02*
X0067669Y0078210D01*
X0067708Y0077611D02*
X0062119Y0077611D01*
X0062119Y0077013D02*
X0068307Y0077013D01*
X0068905Y0076414D02*
X0062119Y0076414D01*
X0062119Y0075816D02*
X0071519Y0075816D01*
X0071519Y0076414D02*
X0070933Y0076414D01*
X0071519Y0075217D02*
X0062119Y0075217D01*
X0062119Y0074619D02*
X0071519Y0074619D01*
X0071519Y0074020D02*
X0062119Y0074020D01*
X0062119Y0073422D02*
X0071519Y0073422D01*
X0071519Y0072823D02*
X0063860Y0072823D01*
X0064459Y0072225D02*
X0071519Y0072225D01*
X0071519Y0071626D02*
X0065057Y0071626D01*
X0065169Y0071028D02*
X0071519Y0071028D01*
X0071519Y0070429D02*
X0065169Y0070429D01*
X0065169Y0069831D02*
X0071519Y0069831D01*
X0071519Y0069232D02*
X0064751Y0069232D01*
X0064152Y0068634D02*
X0071519Y0068634D01*
X0069919Y0078582D02*
X0071319Y0079982D01*
X0071319Y0098782D01*
X0070119Y0099982D01*
X0070119Y0111882D01*
X0066219Y0115782D01*
X0063819Y0115782D01*
X0064719Y0112582D02*
X0058719Y0112582D01*
X0057519Y0109582D02*
X0054519Y0112582D01*
X0054519Y0113782D01*
X0061119Y0120382D01*
X0065919Y0120382D01*
X0069519Y0116782D01*
X0064719Y0112582D02*
X0066519Y0110782D01*
X0066519Y0101182D01*
X0070119Y0097582D01*
X0070119Y0088782D01*
X0070119Y0086589D02*
X0069969Y0086589D01*
X0069969Y0085990D02*
X0070119Y0085990D01*
X0070119Y0085392D02*
X0069910Y0085392D01*
X0070719Y0079382D02*
X0069919Y0078582D01*
X0078319Y0077013D02*
X0078707Y0077013D01*
X0079919Y0078982D02*
X0079919Y0086582D01*
X0078519Y0087982D01*
X0078519Y0105582D01*
X0079332Y0106395D01*
X0081732Y0106395D01*
X0085119Y0109782D01*
X0082819Y0107482D01*
X0080219Y0109982D02*
X0080219Y0110282D01*
X0079719Y0110782D01*
X0079719Y0119782D01*
X0080319Y0120382D01*
X0078656Y0121901D02*
X0078319Y0121901D01*
X0078219Y0122500D02*
X0079254Y0122500D01*
X0080106Y0123098D02*
X0077971Y0123098D01*
X0077613Y0123697D02*
X0079508Y0123697D01*
X0079222Y0123982D02*
X0079222Y0123982D01*
X0078909Y0124295D02*
X0077015Y0124295D01*
X0076416Y0124894D02*
X0078519Y0124894D01*
X0078519Y0125492D02*
X0075818Y0125492D01*
X0075219Y0126091D02*
X0078519Y0126091D01*
X0078519Y0126689D02*
X0074621Y0126689D01*
X0074022Y0127288D02*
X0078519Y0127288D01*
X0078519Y0127886D02*
X0073424Y0127886D01*
X0072825Y0128485D02*
X0078519Y0128485D01*
X0078519Y0129083D02*
X0071635Y0129083D01*
X0066228Y0129682D02*
X0078519Y0129682D01*
X0078519Y0130280D02*
X0065630Y0130280D01*
X0065031Y0130879D02*
X0078519Y0130879D01*
X0078519Y0131477D02*
X0064519Y0131477D01*
X0064519Y0132076D02*
X0078519Y0132076D01*
X0078519Y0132674D02*
X0064519Y0132674D01*
X0064519Y0133273D02*
X0078519Y0133273D01*
X0078519Y0133871D02*
X0064519Y0133871D01*
X0064519Y0134470D02*
X0078519Y0134470D01*
X0078519Y0135068D02*
X0064519Y0135068D01*
X0064519Y0135667D02*
X0078519Y0135667D01*
X0078519Y0136265D02*
X0064519Y0136265D01*
X0064519Y0136864D02*
X0078519Y0136864D01*
X0078519Y0137462D02*
X0064519Y0137462D01*
X0064519Y0138061D02*
X0078519Y0138061D01*
X0078519Y0138659D02*
X0064519Y0138659D01*
X0064519Y0139258D02*
X0078519Y0139258D01*
X0078519Y0139856D02*
X0064519Y0139856D01*
X0064519Y0140455D02*
X0078519Y0140455D01*
X0078519Y0141053D02*
X0064519Y0141053D01*
X0064519Y0141652D02*
X0078519Y0141652D01*
X0078519Y0142250D02*
X0064519Y0142250D01*
X0064519Y0142849D02*
X0078519Y0142849D01*
X0078519Y0143447D02*
X0064519Y0143447D01*
X0064519Y0144046D02*
X0078519Y0144046D01*
X0078519Y0144644D02*
X0064519Y0144644D01*
X0064519Y0145243D02*
X0078519Y0145243D01*
X0078519Y0145841D02*
X0064519Y0145841D01*
X0064519Y0146440D02*
X0078519Y0146440D01*
X0078519Y0147039D02*
X0064519Y0147039D01*
X0064519Y0147637D02*
X0078519Y0147637D01*
X0078519Y0148236D02*
X0064519Y0148236D01*
X0064519Y0148834D02*
X0078170Y0148834D01*
X0077572Y0149433D02*
X0064519Y0149433D01*
X0064519Y0150031D02*
X0076973Y0150031D01*
X0076375Y0150630D02*
X0064519Y0150630D01*
X0064519Y0151228D02*
X0075776Y0151228D01*
X0073693Y0151827D02*
X0064519Y0151827D01*
X0064519Y0152425D02*
X0073094Y0152425D01*
X0072496Y0153024D02*
X0064519Y0153024D01*
X0064519Y0153622D02*
X0072469Y0153622D01*
X0072469Y0154221D02*
X0064519Y0154221D01*
X0064519Y0154819D02*
X0072469Y0154819D01*
X0072972Y0155418D02*
X0064519Y0155418D01*
X0064519Y0156016D02*
X0073571Y0156016D01*
X0074719Y0153982D02*
X0079719Y0148982D01*
X0079719Y0125182D01*
X0083319Y0121582D01*
X0083319Y0116182D01*
X0088119Y0111382D01*
X0088119Y0108382D01*
X0086319Y0106582D01*
X0086319Y0099982D01*
X0087919Y0100882D02*
X0087919Y0105782D01*
X0089319Y0107182D01*
X0089319Y0111982D01*
X0084519Y0116782D01*
X0084519Y0122182D01*
X0080919Y0125782D01*
X0080919Y0151582D01*
X0088319Y0146382D02*
X0083919Y0141982D01*
X0083919Y0126982D01*
X0086919Y0123982D01*
X0086919Y0117982D01*
X0091719Y0113182D01*
X0091719Y0104082D01*
X0092819Y0102982D01*
X0095619Y0101982D02*
X0095619Y0104182D01*
X0092919Y0106882D01*
X0092919Y0113782D01*
X0088119Y0118582D01*
X0088119Y0135182D01*
X0089019Y0136082D01*
X0089019Y0140782D01*
X0090919Y0142682D01*
X0095519Y0139982D02*
X0093319Y0137782D01*
X0093319Y0118782D01*
X0095319Y0116782D01*
X0095319Y0107982D01*
X0098019Y0105282D01*
X0098019Y0103682D01*
X0100219Y0101482D01*
X0102519Y0101482D01*
X0105119Y0098882D01*
X0105119Y0092782D01*
X0109119Y0087982D02*
X0106119Y0084982D01*
X0102419Y0084982D01*
X0102219Y0084782D01*
X0101319Y0080782D02*
X0100119Y0079582D01*
X0100119Y0075382D01*
X0102519Y0072982D01*
X0102519Y0071182D01*
X0099919Y0068582D01*
X0092719Y0068582D01*
X0092319Y0068982D01*
X0092819Y0072382D02*
X0094719Y0072382D01*
X0098919Y0076582D01*
X0098919Y0096082D01*
X0100519Y0097682D01*
X0097719Y0099882D02*
X0097719Y0077782D01*
X0095319Y0075382D01*
X0086319Y0075382D01*
X0083319Y0078382D01*
X0083119Y0074782D02*
X0093319Y0064582D01*
X0099519Y0064582D01*
X0104319Y0069382D01*
X0104319Y0081382D01*
X0110319Y0087382D01*
X0110319Y0113782D01*
X0101319Y0122782D01*
X0101319Y0134782D01*
X0103119Y0136582D01*
X0103119Y0141782D01*
X0109919Y0148582D01*
X0107049Y0151228D02*
X0101919Y0151228D01*
X0101919Y0150630D02*
X0106546Y0150630D01*
X0106613Y0150792D02*
X0106019Y0149358D01*
X0106019Y0147807D01*
X0106437Y0146797D01*
X0102819Y0143179D01*
X0102819Y0147785D01*
X0102819Y0148779D01*
X0101919Y0149679D01*
X0101919Y0159879D01*
X0101319Y0160479D01*
X0101319Y0162485D01*
X0112616Y0173782D01*
X0112819Y0173985D01*
X0112819Y0161763D01*
X0112720Y0161862D01*
X0112173Y0162260D01*
X0111570Y0162567D01*
X0110926Y0162777D01*
X0110257Y0162882D01*
X0110219Y0162882D01*
X0110219Y0158882D01*
X0109619Y0158882D01*
X0109619Y0158282D01*
X0110219Y0158282D01*
X0110219Y0154282D01*
X0110257Y0154282D01*
X0110926Y0154388D01*
X0111570Y0154597D01*
X0112173Y0154905D01*
X0112720Y0155303D01*
X0112819Y0155401D01*
X0112819Y0151198D01*
X0112128Y0151889D01*
X0110695Y0152482D01*
X0109143Y0152482D01*
X0107710Y0151889D01*
X0106613Y0150792D01*
X0106298Y0150031D02*
X0101919Y0150031D01*
X0102166Y0149433D02*
X0106050Y0149433D01*
X0106019Y0148834D02*
X0102764Y0148834D01*
X0102819Y0148236D02*
X0106019Y0148236D01*
X0106089Y0147637D02*
X0102819Y0147637D01*
X0102819Y0147039D02*
X0106337Y0147039D01*
X0106080Y0146440D02*
X0102819Y0146440D01*
X0102819Y0145841D02*
X0105481Y0145841D01*
X0104883Y0145243D02*
X0102819Y0145243D01*
X0102819Y0144644D02*
X0104284Y0144644D01*
X0103686Y0144046D02*
X0102819Y0144046D01*
X0102819Y0143447D02*
X0103087Y0143447D01*
X0100419Y0147682D02*
X0100419Y0137482D01*
X0098319Y0135382D01*
X0098319Y0122182D01*
X0103419Y0117082D01*
X0103419Y0112882D01*
X0100919Y0110382D01*
X0100919Y0109382D01*
X0100419Y0106282D02*
X0100419Y0105882D01*
X0101519Y0104782D01*
X0106719Y0104782D01*
X0109119Y0102382D01*
X0109119Y0087982D01*
X0111519Y0086782D02*
X0105519Y0080782D01*
X0105519Y0068182D01*
X0100519Y0063182D01*
X0081619Y0063182D01*
X0082941Y0065042D02*
X0091162Y0065042D01*
X0091760Y0064444D02*
X0083539Y0064444D01*
X0078319Y0060254D02*
X0106019Y0060254D01*
X0106019Y0059656D02*
X0078319Y0059656D01*
X0078319Y0059057D02*
X0106019Y0059057D01*
X0106019Y0058459D02*
X0078319Y0058459D01*
X0078319Y0057860D02*
X0106019Y0057860D01*
X0106019Y0057262D02*
X0078319Y0057262D01*
X0078319Y0056663D02*
X0106019Y0056663D01*
X0106019Y0056065D02*
X0078319Y0056065D01*
X0078319Y0055466D02*
X0106162Y0055466D01*
X0106019Y0062050D02*
X0101084Y0062050D01*
X0101682Y0062648D02*
X0106312Y0062648D01*
X0104076Y0065042D02*
X0112819Y0065042D01*
X0112819Y0064444D02*
X0103478Y0064444D01*
X0102879Y0063845D02*
X0112819Y0063845D01*
X0112819Y0063247D02*
X0102281Y0063247D01*
X0104675Y0065641D02*
X0107795Y0065641D01*
X0107146Y0066239D02*
X0105273Y0066239D01*
X0105872Y0066838D02*
X0106586Y0066838D01*
X0112043Y0065641D02*
X0112819Y0065641D01*
X0112819Y0066239D02*
X0112692Y0066239D01*
X0112819Y0054868D02*
X0078319Y0054868D01*
X0078319Y0054269D02*
X0112819Y0054269D01*
X0112819Y0053671D02*
X0078319Y0053671D01*
X0078319Y0053072D02*
X0112819Y0053072D01*
X0112819Y0052474D02*
X0078319Y0052474D01*
X0078319Y0051875D02*
X0112819Y0051875D01*
X0094119Y0072382D02*
X0092819Y0072382D01*
X0088019Y0079682D02*
X0089919Y0081582D01*
X0093919Y0081582D01*
X0095319Y0082982D01*
X0095319Y0093482D01*
X0087919Y0100882D01*
X0095619Y0101982D02*
X0097719Y0099882D01*
X0100419Y0106282D02*
X0097719Y0108982D01*
X0097719Y0118882D01*
X0095919Y0120682D01*
X0095919Y0136582D01*
X0097919Y0138582D01*
X0097919Y0146582D01*
X0097119Y0147382D01*
X0097119Y0156982D01*
X0096519Y0157582D01*
X0096519Y0164782D01*
X0106719Y0174982D01*
X0106719Y0179182D01*
X0109719Y0176182D02*
X0109719Y0196882D01*
X0110919Y0197582D02*
X0102519Y0205982D01*
X0102519Y0217582D01*
X0093519Y0226582D01*
X0093519Y0258382D01*
X0092319Y0259582D01*
X0094519Y0262582D02*
X0097919Y0259182D01*
X0099528Y0260756D02*
X0105719Y0260756D01*
X0105719Y0260157D02*
X0100126Y0260157D01*
X0100169Y0259559D02*
X0105719Y0259559D01*
X0105719Y0258960D02*
X0100169Y0258960D01*
X0100169Y0258362D02*
X0105719Y0258362D01*
X0105719Y0257763D02*
X0099682Y0257763D01*
X0099083Y0257165D02*
X0105719Y0257165D01*
X0105450Y0261354D02*
X0098929Y0261354D01*
X0096846Y0261953D02*
X0104852Y0261953D01*
X0104253Y0262551D02*
X0096247Y0262551D01*
X0106519Y0264982D02*
X0030319Y0264982D01*
X0027919Y0262582D01*
X0027919Y0118582D01*
X0045919Y0100582D01*
X0045919Y0084582D01*
X0044322Y0082998D02*
X0029119Y0082998D01*
X0029119Y0083596D02*
X0043723Y0083596D01*
X0043669Y0084195D02*
X0029119Y0084195D01*
X0029119Y0084793D02*
X0043669Y0084793D01*
X0043669Y0085392D02*
X0029119Y0085392D01*
X0029119Y0085990D02*
X0044145Y0085990D01*
X0044719Y0086589D02*
X0029119Y0086589D01*
X0029119Y0087187D02*
X0044719Y0087187D01*
X0044719Y0087786D02*
X0029119Y0087786D01*
X0029119Y0088384D02*
X0044719Y0088384D01*
X0044719Y0088983D02*
X0029119Y0088983D01*
X0029119Y0089581D02*
X0044719Y0089581D01*
X0044719Y0090180D02*
X0029119Y0090180D01*
X0029119Y0090778D02*
X0044719Y0090778D01*
X0044719Y0091377D02*
X0029119Y0091377D01*
X0029119Y0091975D02*
X0044719Y0091975D01*
X0044719Y0092574D02*
X0029119Y0092574D01*
X0029119Y0093172D02*
X0044719Y0093172D01*
X0044719Y0093771D02*
X0029119Y0093771D01*
X0029119Y0094370D02*
X0044719Y0094370D01*
X0044719Y0094968D02*
X0029119Y0094968D01*
X0029119Y0095567D02*
X0044719Y0095567D01*
X0044719Y0096165D02*
X0029119Y0096165D01*
X0029119Y0096764D02*
X0044719Y0096764D01*
X0044719Y0097362D02*
X0029119Y0097362D01*
X0029119Y0097961D02*
X0044719Y0097961D01*
X0044719Y0098559D02*
X0034078Y0098559D01*
X0033851Y0098332D02*
X0031987Y0098332D01*
X0030669Y0099650D01*
X0030669Y0101514D01*
X0031719Y0102564D01*
X0031719Y0104600D01*
X0030669Y0105650D01*
X0030669Y0107514D01*
X0031987Y0108832D01*
X0033851Y0108832D01*
X0035169Y0107514D01*
X0035169Y0105650D01*
X0034119Y0104600D01*
X0034119Y0102564D01*
X0035169Y0101514D01*
X0035169Y0099650D01*
X0033851Y0098332D01*
X0034676Y0099158D02*
X0044719Y0099158D01*
X0044719Y0099756D02*
X0035169Y0099756D01*
X0035169Y0100355D02*
X0044450Y0100355D01*
X0043851Y0100953D02*
X0035169Y0100953D01*
X0035132Y0101552D02*
X0043253Y0101552D01*
X0042654Y0102150D02*
X0034533Y0102150D01*
X0034119Y0102749D02*
X0042056Y0102749D01*
X0041457Y0103347D02*
X0034119Y0103347D01*
X0034119Y0103946D02*
X0040859Y0103946D01*
X0040260Y0104544D02*
X0034119Y0104544D01*
X0034661Y0105143D02*
X0039662Y0105143D01*
X0039063Y0105741D02*
X0035169Y0105741D01*
X0035169Y0106340D02*
X0038465Y0106340D01*
X0037866Y0106938D02*
X0035169Y0106938D01*
X0035147Y0107537D02*
X0037268Y0107537D01*
X0036669Y0108135D02*
X0034548Y0108135D01*
X0033950Y0108734D02*
X0036071Y0108734D01*
X0035472Y0109332D02*
X0023819Y0109332D01*
X0023819Y0108734D02*
X0031888Y0108734D01*
X0031290Y0108135D02*
X0024063Y0108135D01*
X0024662Y0107537D02*
X0030691Y0107537D01*
X0030669Y0106938D02*
X0025260Y0106938D01*
X0025859Y0106340D02*
X0030669Y0106340D01*
X0030669Y0105741D02*
X0026457Y0105741D01*
X0027056Y0105143D02*
X0031177Y0105143D01*
X0031719Y0104544D02*
X0027654Y0104544D01*
X0028253Y0103946D02*
X0031719Y0103946D01*
X0031719Y0103347D02*
X0028851Y0103347D01*
X0029119Y0102749D02*
X0031719Y0102749D01*
X0031305Y0102150D02*
X0029119Y0102150D01*
X0029119Y0101552D02*
X0030706Y0101552D01*
X0030669Y0100953D02*
X0029119Y0100953D01*
X0029119Y0100355D02*
X0030669Y0100355D01*
X0030669Y0099756D02*
X0029119Y0099756D01*
X0029119Y0099158D02*
X0031162Y0099158D01*
X0031760Y0098559D02*
X0029119Y0098559D01*
X0032919Y0100582D02*
X0032919Y0106582D01*
X0034874Y0109931D02*
X0023819Y0109931D01*
X0023819Y0110529D02*
X0034275Y0110529D01*
X0033677Y0111128D02*
X0023819Y0111128D01*
X0023819Y0111726D02*
X0033078Y0111726D01*
X0032479Y0112325D02*
X0023449Y0112325D01*
X0027691Y0117113D02*
X0017019Y0117113D01*
X0017019Y0117711D02*
X0027093Y0117711D01*
X0027422Y0117382D02*
X0027422Y0117382D01*
X0026719Y0118310D02*
X0017019Y0118310D01*
X0017019Y0118908D02*
X0026719Y0118908D01*
X0026719Y0119507D02*
X0017019Y0119507D01*
X0017019Y0120105D02*
X0026719Y0120105D01*
X0026719Y0120704D02*
X0017019Y0120704D01*
X0017019Y0121303D02*
X0026719Y0121303D01*
X0026719Y0121901D02*
X0017019Y0121901D01*
X0017019Y0122500D02*
X0026719Y0122500D01*
X0026719Y0123098D02*
X0017019Y0123098D01*
X0017019Y0123697D02*
X0026719Y0123697D01*
X0026719Y0124295D02*
X0017019Y0124295D01*
X0017019Y0124894D02*
X0018633Y0124894D01*
X0017494Y0125492D02*
X0017019Y0125492D01*
X0021205Y0124894D02*
X0026719Y0124894D01*
X0026719Y0125492D02*
X0022344Y0125492D01*
X0022943Y0126091D02*
X0026719Y0126091D01*
X0026719Y0126689D02*
X0023356Y0126689D01*
X0023604Y0127288D02*
X0026719Y0127288D01*
X0026719Y0127886D02*
X0023819Y0127886D01*
X0023819Y0128485D02*
X0026719Y0128485D01*
X0026719Y0129083D02*
X0023819Y0129083D01*
X0023685Y0129682D02*
X0026719Y0129682D01*
X0026719Y0130280D02*
X0023437Y0130280D01*
X0023138Y0130879D02*
X0026719Y0130879D01*
X0026719Y0131477D02*
X0022540Y0131477D01*
X0021677Y0132076D02*
X0026719Y0132076D01*
X0026719Y0132674D02*
X0017019Y0132674D01*
X0017019Y0132076D02*
X0018161Y0132076D01*
X0017298Y0131477D02*
X0017019Y0131477D01*
X0017019Y0133273D02*
X0026719Y0133273D01*
X0026719Y0133871D02*
X0017019Y0133871D01*
X0017019Y0134470D02*
X0026719Y0134470D01*
X0026719Y0135068D02*
X0021626Y0135068D01*
X0022519Y0135667D02*
X0026719Y0135667D01*
X0026719Y0136265D02*
X0023117Y0136265D01*
X0023428Y0136864D02*
X0026719Y0136864D01*
X0026719Y0137462D02*
X0023676Y0137462D01*
X0023819Y0138061D02*
X0026719Y0138061D01*
X0026719Y0138659D02*
X0023819Y0138659D01*
X0023819Y0139258D02*
X0026719Y0139258D01*
X0026719Y0139856D02*
X0023613Y0139856D01*
X0023365Y0140455D02*
X0026719Y0140455D01*
X0026719Y0141053D02*
X0022963Y0141053D01*
X0022365Y0141652D02*
X0026719Y0141652D01*
X0026719Y0142250D02*
X0021255Y0142250D01*
X0018583Y0142250D02*
X0017019Y0142250D01*
X0017019Y0141652D02*
X0017473Y0141652D01*
X0017019Y0142849D02*
X0026719Y0142849D01*
X0026719Y0143447D02*
X0017019Y0143447D01*
X0017019Y0144046D02*
X0026719Y0144046D01*
X0026719Y0144644D02*
X0017019Y0144644D01*
X0017019Y0153024D02*
X0026719Y0153024D01*
X0026719Y0153622D02*
X0017019Y0153622D01*
X0017019Y0154221D02*
X0026719Y0154221D01*
X0026719Y0154819D02*
X0017019Y0154819D01*
X0017019Y0155418D02*
X0026719Y0155418D01*
X0026719Y0156016D02*
X0017019Y0156016D01*
X0017019Y0156615D02*
X0026719Y0156615D01*
X0026719Y0157213D02*
X0017019Y0157213D01*
X0017019Y0157812D02*
X0026719Y0157812D01*
X0026719Y0158410D02*
X0017019Y0158410D01*
X0017019Y0159009D02*
X0026719Y0159009D01*
X0026719Y0159607D02*
X0017019Y0159607D01*
X0017019Y0160206D02*
X0026719Y0160206D01*
X0026719Y0160804D02*
X0017019Y0160804D01*
X0017019Y0161403D02*
X0026719Y0161403D01*
X0026719Y0162001D02*
X0017019Y0162001D01*
X0017019Y0162600D02*
X0026719Y0162600D01*
X0026719Y0163198D02*
X0017019Y0163198D01*
X0017019Y0163797D02*
X0026719Y0163797D01*
X0026719Y0164395D02*
X0017019Y0164395D01*
X0017019Y0164994D02*
X0026719Y0164994D01*
X0026719Y0165592D02*
X0017019Y0165592D01*
X0017019Y0166191D02*
X0026719Y0166191D01*
X0026719Y0166789D02*
X0017019Y0166789D01*
X0017019Y0167388D02*
X0026719Y0167388D01*
X0026719Y0167986D02*
X0017019Y0167986D01*
X0017019Y0168585D02*
X0026719Y0168585D01*
X0026719Y0169183D02*
X0017019Y0169183D01*
X0017019Y0169782D02*
X0026719Y0169782D01*
X0026719Y0170380D02*
X0017019Y0170380D01*
X0017019Y0170979D02*
X0026719Y0170979D01*
X0026719Y0171577D02*
X0017019Y0171577D01*
X0017019Y0172176D02*
X0026719Y0172176D01*
X0026719Y0172774D02*
X0017019Y0172774D01*
X0017019Y0173373D02*
X0026719Y0173373D01*
X0026719Y0173972D02*
X0017019Y0173972D01*
X0017019Y0174570D02*
X0026719Y0174570D01*
X0026719Y0175169D02*
X0021868Y0175169D01*
X0022619Y0175767D02*
X0026719Y0175767D01*
X0026719Y0176366D02*
X0023218Y0176366D01*
X0023470Y0176964D02*
X0026719Y0176964D01*
X0026719Y0177563D02*
X0023718Y0177563D01*
X0023819Y0178161D02*
X0026719Y0178161D01*
X0026719Y0179957D02*
X0023571Y0179957D01*
X0023323Y0180555D02*
X0026719Y0180555D01*
X0026719Y0181154D02*
X0022863Y0181154D01*
X0022265Y0181752D02*
X0026719Y0181752D01*
X0026719Y0182351D02*
X0021013Y0182351D01*
X0018825Y0182351D02*
X0017019Y0182351D01*
X0017019Y0182949D02*
X0026719Y0182949D01*
X0026719Y0183548D02*
X0017019Y0183548D01*
X0017019Y0184146D02*
X0026719Y0184146D01*
X0026719Y0184745D02*
X0020845Y0184745D01*
X0022195Y0185343D02*
X0026719Y0185343D01*
X0026719Y0185942D02*
X0022794Y0185942D01*
X0023294Y0186540D02*
X0026719Y0186540D01*
X0026719Y0187139D02*
X0023542Y0187139D01*
X0023790Y0187737D02*
X0026719Y0187737D01*
X0026719Y0188336D02*
X0023819Y0188336D01*
X0023819Y0188934D02*
X0026719Y0188934D01*
X0026719Y0189533D02*
X0023747Y0189533D01*
X0023499Y0190131D02*
X0026719Y0190131D01*
X0026719Y0190730D02*
X0023251Y0190730D01*
X0022688Y0191328D02*
X0026719Y0191328D01*
X0026719Y0191927D02*
X0022036Y0191927D01*
X0023529Y0194919D02*
X0026719Y0194919D01*
X0026719Y0194321D02*
X0017019Y0194321D01*
X0017019Y0193722D02*
X0026719Y0193722D01*
X0026719Y0193124D02*
X0017019Y0193124D01*
X0017019Y0192525D02*
X0026719Y0192525D01*
X0026719Y0195518D02*
X0023819Y0195518D01*
X0023819Y0196116D02*
X0026719Y0196116D01*
X0026719Y0196715D02*
X0023819Y0196715D01*
X0023819Y0197313D02*
X0026719Y0197313D01*
X0026719Y0197912D02*
X0023819Y0197912D01*
X0023819Y0198510D02*
X0026719Y0198510D01*
X0026719Y0199109D02*
X0023819Y0199109D01*
X0023819Y0199708D02*
X0026719Y0199708D01*
X0026719Y0200306D02*
X0023819Y0200306D01*
X0023819Y0200905D02*
X0026719Y0200905D01*
X0026719Y0201503D02*
X0023819Y0201503D01*
X0023673Y0202102D02*
X0026719Y0202102D01*
X0026719Y0202700D02*
X0017019Y0202700D01*
X0017019Y0203299D02*
X0026719Y0203299D01*
X0026719Y0203897D02*
X0017019Y0203897D01*
X0017019Y0204496D02*
X0026719Y0204496D01*
X0026719Y0205094D02*
X0017019Y0205094D01*
X0017019Y0205693D02*
X0026719Y0205693D01*
X0026719Y0206291D02*
X0017019Y0206291D01*
X0017019Y0206890D02*
X0026719Y0206890D01*
X0026719Y0207488D02*
X0017019Y0207488D01*
X0017019Y0208087D02*
X0026719Y0208087D01*
X0026719Y0208685D02*
X0017019Y0208685D01*
X0017019Y0209284D02*
X0026719Y0209284D01*
X0026719Y0209882D02*
X0017019Y0209882D01*
X0017019Y0210481D02*
X0026719Y0210481D01*
X0026719Y0211079D02*
X0017019Y0211079D01*
X0017019Y0211678D02*
X0026719Y0211678D01*
X0026719Y0212276D02*
X0017019Y0212276D01*
X0017019Y0212875D02*
X0026719Y0212875D01*
X0026719Y0213473D02*
X0017019Y0213473D01*
X0017019Y0214072D02*
X0026719Y0214072D01*
X0026719Y0214670D02*
X0017019Y0214670D01*
X0017019Y0215269D02*
X0026719Y0215269D01*
X0026719Y0215867D02*
X0017019Y0215867D01*
X0017019Y0216466D02*
X0026719Y0216466D01*
X0026719Y0217064D02*
X0017019Y0217064D01*
X0017019Y0217663D02*
X0026719Y0217663D01*
X0026719Y0218261D02*
X0017019Y0218261D01*
X0017019Y0218860D02*
X0026719Y0218860D01*
X0026719Y0219458D02*
X0017019Y0219458D01*
X0017019Y0220057D02*
X0026719Y0220057D01*
X0026719Y0220655D02*
X0017019Y0220655D01*
X0017019Y0221254D02*
X0026719Y0221254D01*
X0026719Y0221852D02*
X0017019Y0221852D01*
X0017019Y0222451D02*
X0026719Y0222451D01*
X0026719Y0223049D02*
X0017019Y0223049D01*
X0017019Y0223648D02*
X0026719Y0223648D01*
X0026719Y0224246D02*
X0017019Y0224246D01*
X0017019Y0224845D02*
X0018751Y0224845D01*
X0017542Y0225443D02*
X0017019Y0225443D01*
X0017019Y0231429D02*
X0017250Y0231429D01*
X0017019Y0232027D02*
X0018044Y0232027D01*
X0017019Y0232626D02*
X0026719Y0232626D01*
X0026719Y0233224D02*
X0017019Y0233224D01*
X0017019Y0233823D02*
X0026719Y0233823D01*
X0026719Y0234421D02*
X0017019Y0234421D01*
X0017019Y0235020D02*
X0018329Y0235020D01*
X0017368Y0235618D02*
X0017019Y0235618D01*
X0017019Y0241603D02*
X0017424Y0241603D01*
X0017019Y0242202D02*
X0018466Y0242202D01*
X0017019Y0242800D02*
X0026719Y0242800D01*
X0026719Y0242202D02*
X0021372Y0242202D01*
X0022414Y0241603D02*
X0026719Y0241603D01*
X0026719Y0241005D02*
X0023012Y0241005D01*
X0023385Y0240406D02*
X0026719Y0240406D01*
X0026719Y0239808D02*
X0023633Y0239808D01*
X0023819Y0239209D02*
X0026719Y0239209D01*
X0026719Y0238611D02*
X0023819Y0238611D01*
X0023819Y0238012D02*
X0026719Y0238012D01*
X0026719Y0237414D02*
X0023656Y0237414D01*
X0023408Y0236815D02*
X0026719Y0236815D01*
X0026719Y0236217D02*
X0023069Y0236217D01*
X0022470Y0235618D02*
X0026719Y0235618D01*
X0026719Y0235020D02*
X0021509Y0235020D01*
X0021794Y0232027D02*
X0026719Y0232027D01*
X0026719Y0231429D02*
X0022588Y0231429D01*
X0023187Y0230830D02*
X0026719Y0230830D01*
X0026719Y0230232D02*
X0023457Y0230232D01*
X0023705Y0229633D02*
X0026719Y0229633D01*
X0026719Y0229035D02*
X0023819Y0229035D01*
X0023819Y0228436D02*
X0026719Y0228436D01*
X0026719Y0227838D02*
X0023819Y0227838D01*
X0023584Y0227239D02*
X0026719Y0227239D01*
X0026719Y0226641D02*
X0023336Y0226641D01*
X0022894Y0226042D02*
X0026719Y0226042D01*
X0026719Y0225443D02*
X0022296Y0225443D01*
X0021087Y0224845D02*
X0026719Y0224845D01*
X0032919Y0224845D02*
X0057719Y0224845D01*
X0057719Y0225443D02*
X0056362Y0225443D01*
X0056961Y0226042D02*
X0057719Y0226042D01*
X0057719Y0226641D02*
X0057559Y0226641D01*
X0057569Y0227239D02*
X0057719Y0227239D01*
X0057719Y0227838D02*
X0057569Y0227838D01*
X0057569Y0228436D02*
X0057719Y0228436D01*
X0057719Y0229035D02*
X0057049Y0229035D01*
X0056450Y0229633D02*
X0057719Y0229633D01*
X0057719Y0230232D02*
X0041119Y0230232D01*
X0041119Y0229633D02*
X0054188Y0229633D01*
X0053589Y0229035D02*
X0041164Y0229035D01*
X0039919Y0228582D02*
X0040919Y0227582D01*
X0055319Y0227582D01*
X0053677Y0226042D02*
X0032919Y0226042D01*
X0032919Y0226641D02*
X0040164Y0226641D01*
X0039565Y0227239D02*
X0032919Y0227239D01*
X0032919Y0227838D02*
X0038967Y0227838D01*
X0038719Y0228436D02*
X0032919Y0228436D01*
X0032919Y0229035D02*
X0038719Y0229035D01*
X0038719Y0229633D02*
X0032919Y0229633D01*
X0032919Y0230232D02*
X0038719Y0230232D01*
X0038719Y0230830D02*
X0032919Y0230830D01*
X0032919Y0231429D02*
X0038719Y0231429D01*
X0038719Y0232027D02*
X0032919Y0232027D01*
X0032919Y0232626D02*
X0038719Y0232626D01*
X0038719Y0233224D02*
X0032919Y0233224D01*
X0032919Y0233823D02*
X0038719Y0233823D01*
X0038719Y0234421D02*
X0032919Y0234421D01*
X0032919Y0235020D02*
X0038719Y0235020D01*
X0038719Y0235618D02*
X0032919Y0235618D01*
X0032919Y0236217D02*
X0038719Y0236217D01*
X0038719Y0236815D02*
X0032919Y0236815D01*
X0032919Y0237414D02*
X0038719Y0237414D01*
X0038719Y0238012D02*
X0032919Y0238012D01*
X0032919Y0238611D02*
X0038719Y0238611D01*
X0038719Y0239209D02*
X0032919Y0239209D01*
X0032919Y0239808D02*
X0038719Y0239808D01*
X0038719Y0240406D02*
X0032919Y0240406D01*
X0032919Y0241005D02*
X0038719Y0241005D01*
X0038719Y0241603D02*
X0032919Y0241603D01*
X0032919Y0242202D02*
X0038719Y0242202D01*
X0038719Y0242800D02*
X0032919Y0242800D01*
X0032919Y0243399D02*
X0038719Y0243399D01*
X0038719Y0243997D02*
X0032919Y0243997D01*
X0032919Y0244596D02*
X0038719Y0244596D01*
X0038719Y0245194D02*
X0032919Y0245194D01*
X0032919Y0245793D02*
X0038719Y0245793D01*
X0038719Y0246391D02*
X0032919Y0246391D01*
X0032919Y0246990D02*
X0038719Y0246990D01*
X0038266Y0247588D02*
X0032919Y0247588D01*
X0032919Y0248187D02*
X0037668Y0248187D01*
X0039919Y0247633D02*
X0036744Y0250808D01*
X0035131Y0252377D02*
X0032919Y0252377D01*
X0032919Y0252975D02*
X0035730Y0252975D01*
X0034533Y0251778D02*
X0032919Y0251778D01*
X0032919Y0251179D02*
X0034494Y0251179D01*
X0034494Y0250581D02*
X0032919Y0250581D01*
X0032919Y0249982D02*
X0034494Y0249982D01*
X0034986Y0249384D02*
X0032919Y0249384D01*
X0032919Y0248785D02*
X0035584Y0248785D01*
X0038994Y0250581D02*
X0053223Y0250581D01*
X0052625Y0251179D02*
X0038994Y0251179D01*
X0038956Y0251778D02*
X0052026Y0251778D01*
X0053822Y0249982D02*
X0039266Y0249982D01*
X0039865Y0249384D02*
X0054420Y0249384D01*
X0055019Y0248785D02*
X0040463Y0248785D01*
X0041062Y0248187D02*
X0055617Y0248187D01*
X0056216Y0247588D02*
X0041119Y0247588D01*
X0041119Y0246990D02*
X0056814Y0246990D01*
X0057413Y0246391D02*
X0044292Y0246391D01*
X0042919Y0244582D02*
X0042919Y0233582D01*
X0039919Y0228582D02*
X0039919Y0247633D01*
X0041119Y0246391D02*
X0041546Y0246391D01*
X0032919Y0257165D02*
X0073840Y0257165D01*
X0073241Y0257763D02*
X0032919Y0257763D01*
X0032919Y0258362D02*
X0072643Y0258362D01*
X0072044Y0258960D02*
X0032919Y0258960D01*
X0032919Y0259559D02*
X0071446Y0259559D01*
X0070847Y0260157D02*
X0032919Y0260157D01*
X0029782Y0266142D02*
X0017019Y0266142D01*
X0017019Y0265544D02*
X0029183Y0265544D01*
X0028585Y0264945D02*
X0017019Y0264945D01*
X0017019Y0264347D02*
X0027986Y0264347D01*
X0027388Y0263748D02*
X0017019Y0263748D01*
X0017019Y0263150D02*
X0026789Y0263150D01*
X0026719Y0262551D02*
X0017019Y0262551D01*
X0017019Y0261953D02*
X0026719Y0261953D01*
X0026719Y0261354D02*
X0017019Y0261354D01*
X0017019Y0260756D02*
X0026719Y0260756D01*
X0026719Y0260157D02*
X0017019Y0260157D01*
X0017019Y0259559D02*
X0026719Y0259559D01*
X0026719Y0258960D02*
X0017019Y0258960D01*
X0017019Y0258362D02*
X0026719Y0258362D01*
X0026719Y0257763D02*
X0017019Y0257763D01*
X0017019Y0257165D02*
X0026719Y0257165D01*
X0026719Y0256566D02*
X0017019Y0256566D01*
X0017019Y0255968D02*
X0026719Y0255968D01*
X0026719Y0255369D02*
X0017019Y0255369D01*
X0017019Y0254771D02*
X0026719Y0254771D01*
X0026719Y0254172D02*
X0017019Y0254172D01*
X0017019Y0253574D02*
X0026719Y0253574D01*
X0026719Y0252975D02*
X0017019Y0252975D01*
X0017019Y0244596D02*
X0026719Y0244596D01*
X0026719Y0245194D02*
X0023804Y0245194D01*
X0023819Y0245793D02*
X0026719Y0245793D01*
X0026719Y0246391D02*
X0023819Y0246391D01*
X0023819Y0246990D02*
X0026719Y0246990D01*
X0026719Y0247588D02*
X0023819Y0247588D01*
X0023819Y0248187D02*
X0026719Y0248187D01*
X0026719Y0248785D02*
X0023819Y0248785D01*
X0023819Y0249384D02*
X0026719Y0249384D01*
X0026719Y0249982D02*
X0023819Y0249982D01*
X0023819Y0250581D02*
X0026719Y0250581D01*
X0026719Y0251179D02*
X0023819Y0251179D01*
X0023819Y0251778D02*
X0026719Y0251778D01*
X0026719Y0252377D02*
X0023398Y0252377D01*
X0026719Y0243997D02*
X0017019Y0243997D01*
X0017019Y0243399D02*
X0026719Y0243399D01*
X0032919Y0225443D02*
X0054276Y0225443D01*
X0057719Y0224246D02*
X0032919Y0224246D01*
X0032919Y0223648D02*
X0057719Y0223648D01*
X0057719Y0223049D02*
X0032919Y0223049D01*
X0032919Y0222451D02*
X0057719Y0222451D01*
X0057719Y0221852D02*
X0032919Y0221852D01*
X0033345Y0221254D02*
X0057719Y0221254D01*
X0057719Y0220655D02*
X0033943Y0220655D01*
X0034542Y0220057D02*
X0057719Y0220057D01*
X0057719Y0219458D02*
X0035140Y0219458D01*
X0035739Y0218860D02*
X0057719Y0218860D01*
X0057719Y0218261D02*
X0036337Y0218261D01*
X0036936Y0217663D02*
X0057719Y0217663D01*
X0057719Y0217064D02*
X0037534Y0217064D01*
X0038133Y0216466D02*
X0057719Y0216466D01*
X0057719Y0215867D02*
X0038731Y0215867D01*
X0039330Y0215269D02*
X0057719Y0215269D01*
X0057719Y0214670D02*
X0039928Y0214670D01*
X0040527Y0214072D02*
X0057719Y0214072D01*
X0057719Y0213473D02*
X0040719Y0213473D01*
X0040719Y0212875D02*
X0057719Y0212875D01*
X0057719Y0212276D02*
X0040719Y0212276D01*
X0040719Y0211678D02*
X0057719Y0211678D01*
X0057719Y0211079D02*
X0040719Y0211079D01*
X0040714Y0210481D02*
X0057719Y0210481D01*
X0057719Y0209882D02*
X0040116Y0209882D01*
X0039517Y0209284D02*
X0057719Y0209284D01*
X0057719Y0208685D02*
X0038919Y0208685D01*
X0038320Y0208087D02*
X0057719Y0208087D01*
X0057719Y0207488D02*
X0037722Y0207488D01*
X0037123Y0206890D02*
X0057719Y0206890D01*
X0057719Y0206291D02*
X0036525Y0206291D01*
X0035926Y0205693D02*
X0057719Y0205693D01*
X0057719Y0205094D02*
X0035328Y0205094D01*
X0034729Y0204496D02*
X0057719Y0204496D01*
X0057719Y0203897D02*
X0034719Y0203897D01*
X0034719Y0203299D02*
X0052453Y0203299D01*
X0051855Y0202700D02*
X0034719Y0202700D01*
X0034719Y0202102D02*
X0051669Y0202102D01*
X0051669Y0201503D02*
X0034719Y0201503D01*
X0034719Y0200905D02*
X0035659Y0200905D01*
X0035061Y0200306D02*
X0034719Y0200306D01*
X0036719Y0198782D02*
X0039919Y0195582D01*
X0039919Y0178582D01*
X0041919Y0176582D01*
X0055319Y0176582D01*
X0053716Y0178161D02*
X0042037Y0178161D01*
X0041439Y0178760D02*
X0051045Y0178760D01*
X0051719Y0179782D02*
X0049919Y0181582D01*
X0048363Y0179957D02*
X0044475Y0179957D01*
X0045074Y0180555D02*
X0047764Y0180555D01*
X0047669Y0181154D02*
X0045169Y0181154D01*
X0045169Y0181752D02*
X0047669Y0181752D01*
X0047669Y0182351D02*
X0045169Y0182351D01*
X0044734Y0182949D02*
X0048104Y0182949D01*
X0048702Y0183548D02*
X0044136Y0183548D01*
X0044119Y0184146D02*
X0057719Y0184146D01*
X0057719Y0183548D02*
X0051136Y0183548D01*
X0051734Y0182949D02*
X0057719Y0182949D01*
X0057719Y0182351D02*
X0052169Y0182351D01*
X0052169Y0181752D02*
X0057719Y0181752D01*
X0057719Y0181154D02*
X0052169Y0181154D01*
X0051719Y0179782D02*
X0061119Y0179782D01*
X0057719Y0184745D02*
X0044119Y0184745D01*
X0044119Y0185343D02*
X0057719Y0185343D01*
X0057719Y0185942D02*
X0044119Y0185942D01*
X0044119Y0186540D02*
X0057719Y0186540D01*
X0057719Y0187139D02*
X0044119Y0187139D01*
X0044119Y0187737D02*
X0057719Y0187737D01*
X0057719Y0188336D02*
X0044119Y0188336D01*
X0044119Y0188934D02*
X0057719Y0188934D01*
X0057719Y0189533D02*
X0044119Y0189533D01*
X0044119Y0190131D02*
X0057719Y0190131D01*
X0057719Y0190730D02*
X0044119Y0190730D01*
X0044119Y0191328D02*
X0057719Y0191328D01*
X0057719Y0191927D02*
X0044445Y0191927D01*
X0045044Y0192525D02*
X0057719Y0192525D01*
X0057719Y0193124D02*
X0045169Y0193124D01*
X0045169Y0193722D02*
X0057719Y0193722D01*
X0057719Y0194321D02*
X0045169Y0194321D01*
X0044764Y0194919D02*
X0057719Y0194919D01*
X0057719Y0195518D02*
X0044165Y0195518D01*
X0042919Y0193582D02*
X0042919Y0181582D01*
X0041363Y0179957D02*
X0041119Y0179957D01*
X0041119Y0179358D02*
X0041961Y0179358D01*
X0043877Y0179358D02*
X0048961Y0179358D01*
X0041673Y0195518D02*
X0041119Y0195518D01*
X0041082Y0196116D02*
X0057719Y0196116D01*
X0057719Y0196715D02*
X0040483Y0196715D01*
X0039885Y0197313D02*
X0057719Y0197313D01*
X0057719Y0197912D02*
X0039286Y0197912D01*
X0038969Y0198510D02*
X0055294Y0198510D01*
X0054695Y0199109D02*
X0038969Y0199109D01*
X0038969Y0199708D02*
X0052612Y0199708D01*
X0052013Y0200306D02*
X0038377Y0200306D01*
X0037779Y0200905D02*
X0051669Y0200905D01*
X0053919Y0201582D02*
X0055919Y0199582D01*
X0061119Y0199582D01*
X0057719Y0200905D02*
X0056294Y0200905D01*
X0056169Y0201503D02*
X0057719Y0201503D01*
X0057719Y0202102D02*
X0056169Y0202102D01*
X0055983Y0202700D02*
X0057719Y0202700D01*
X0057719Y0203299D02*
X0055385Y0203299D01*
X0061119Y0216882D02*
X0061121Y0216932D01*
X0061126Y0216982D01*
X0061135Y0217031D01*
X0061147Y0217079D01*
X0061163Y0217127D01*
X0061182Y0217173D01*
X0061205Y0217217D01*
X0061230Y0217260D01*
X0061259Y0217301D01*
X0061290Y0217340D01*
X0061324Y0217377D01*
X0061361Y0217411D01*
X0061400Y0217442D01*
X0061441Y0217471D01*
X0061484Y0217496D01*
X0061528Y0217519D01*
X0061574Y0217538D01*
X0061622Y0217554D01*
X0061670Y0217566D01*
X0061719Y0217575D01*
X0061769Y0217580D01*
X0061819Y0217582D01*
X0064519Y0214072D02*
X0100119Y0214072D01*
X0100119Y0213473D02*
X0064519Y0213473D01*
X0064519Y0212875D02*
X0100119Y0212875D01*
X0100119Y0212276D02*
X0099407Y0212276D01*
X0100006Y0211678D02*
X0100119Y0211678D01*
X0103719Y0211678D02*
X0106019Y0211678D01*
X0106019Y0211079D02*
X0103719Y0211079D01*
X0103719Y0210481D02*
X0106019Y0210481D01*
X0106019Y0209882D02*
X0103719Y0209882D01*
X0103719Y0209284D02*
X0106019Y0209284D01*
X0106019Y0208685D02*
X0103719Y0208685D01*
X0103719Y0208087D02*
X0106019Y0208087D01*
X0106019Y0207488D02*
X0103719Y0207488D01*
X0103719Y0206890D02*
X0106019Y0206890D01*
X0106019Y0206291D02*
X0103907Y0206291D01*
X0104506Y0205693D02*
X0106019Y0205693D01*
X0106134Y0205094D02*
X0105104Y0205094D01*
X0105703Y0204496D02*
X0107319Y0204496D01*
X0107319Y0203897D02*
X0106301Y0203897D01*
X0106900Y0203299D02*
X0107319Y0203299D01*
X0108519Y0201982D02*
X0108519Y0207182D01*
X0109919Y0208582D01*
X0106340Y0212276D02*
X0103719Y0212276D01*
X0103719Y0212875D02*
X0112819Y0212875D01*
X0112819Y0213473D02*
X0103719Y0213473D01*
X0103719Y0214072D02*
X0112819Y0214072D01*
X0112819Y0214670D02*
X0111713Y0214670D01*
X0112674Y0215269D02*
X0112819Y0215269D01*
X0110219Y0215269D02*
X0109619Y0215269D01*
X0109619Y0215867D02*
X0110219Y0215867D01*
X0110219Y0216466D02*
X0109619Y0216466D01*
X0109619Y0217064D02*
X0110219Y0217064D01*
X0110219Y0217663D02*
X0109619Y0217663D01*
X0109619Y0218261D02*
X0110219Y0218261D01*
X0109619Y0218282D02*
X0109619Y0214282D01*
X0109581Y0214282D01*
X0108912Y0214388D01*
X0108268Y0214597D01*
X0107665Y0214905D01*
X0107118Y0215303D01*
X0106639Y0215781D01*
X0106241Y0216329D01*
X0105934Y0216932D01*
X0105725Y0217575D01*
X0105619Y0218244D01*
X0105619Y0218282D01*
X0109619Y0218282D01*
X0109619Y0218860D02*
X0102939Y0218860D01*
X0103537Y0218261D02*
X0105619Y0218261D01*
X0105711Y0217663D02*
X0103719Y0217663D01*
X0103719Y0217064D02*
X0105891Y0217064D01*
X0106171Y0216466D02*
X0103719Y0216466D01*
X0103719Y0215867D02*
X0106577Y0215867D01*
X0107164Y0215269D02*
X0103719Y0215269D01*
X0103719Y0214670D02*
X0108125Y0214670D01*
X0109619Y0214670D02*
X0110219Y0214670D01*
X0109619Y0218882D02*
X0105619Y0218882D01*
X0105619Y0218921D01*
X0105725Y0219589D01*
X0105934Y0220233D01*
X0106241Y0220836D01*
X0106639Y0221384D01*
X0107118Y0221862D01*
X0107665Y0222260D01*
X0108268Y0222567D01*
X0108912Y0222777D01*
X0109581Y0222882D01*
X0109619Y0222882D01*
X0109619Y0218882D01*
X0109619Y0219458D02*
X0110219Y0219458D01*
X0110219Y0220057D02*
X0109619Y0220057D01*
X0109619Y0220655D02*
X0110219Y0220655D01*
X0110219Y0221254D02*
X0109619Y0221254D01*
X0109619Y0221852D02*
X0110219Y0221852D01*
X0110219Y0222451D02*
X0109619Y0222451D01*
X0108040Y0222451D02*
X0099348Y0222451D01*
X0099946Y0221852D02*
X0107108Y0221852D01*
X0106545Y0221254D02*
X0100545Y0221254D01*
X0101143Y0220655D02*
X0106149Y0220655D01*
X0105877Y0220057D02*
X0101742Y0220057D01*
X0102340Y0219458D02*
X0105704Y0219458D01*
X0108751Y0224845D02*
X0096953Y0224845D01*
X0096355Y0225443D02*
X0107542Y0225443D01*
X0106944Y0226042D02*
X0095756Y0226042D01*
X0095158Y0226641D02*
X0106502Y0226641D01*
X0106254Y0227239D02*
X0094719Y0227239D01*
X0094719Y0227838D02*
X0106019Y0227838D01*
X0106019Y0228436D02*
X0094719Y0228436D01*
X0094719Y0229035D02*
X0106019Y0229035D01*
X0106133Y0229633D02*
X0094719Y0229633D01*
X0094719Y0230232D02*
X0106381Y0230232D01*
X0106651Y0230830D02*
X0094719Y0230830D01*
X0094719Y0231429D02*
X0107250Y0231429D01*
X0108044Y0232027D02*
X0094719Y0232027D01*
X0094719Y0232626D02*
X0112819Y0232626D01*
X0112819Y0233224D02*
X0094719Y0233224D01*
X0097552Y0224246D02*
X0112819Y0224246D01*
X0112819Y0223648D02*
X0098150Y0223648D01*
X0098749Y0223049D02*
X0112819Y0223049D01*
X0112819Y0222451D02*
X0111798Y0222451D01*
X0112730Y0221852D02*
X0112819Y0221852D01*
X0112819Y0224845D02*
X0111087Y0224845D01*
X0112296Y0225443D02*
X0112819Y0225443D01*
X0112819Y0231429D02*
X0112588Y0231429D01*
X0112819Y0232027D02*
X0111794Y0232027D01*
X0112819Y0233823D02*
X0108341Y0233823D01*
X0108940Y0234421D02*
X0112819Y0234421D01*
X0112819Y0235020D02*
X0109169Y0235020D01*
X0109169Y0235618D02*
X0112819Y0235618D01*
X0112819Y0236217D02*
X0109169Y0236217D01*
X0108868Y0236815D02*
X0112819Y0236815D01*
X0112819Y0237414D02*
X0108270Y0237414D01*
X0108119Y0238012D02*
X0112819Y0238012D01*
X0112819Y0238611D02*
X0108119Y0238611D01*
X0108119Y0239209D02*
X0112819Y0239209D01*
X0112819Y0239808D02*
X0108119Y0239808D01*
X0108119Y0240406D02*
X0112819Y0240406D01*
X0112819Y0241005D02*
X0108119Y0241005D01*
X0108119Y0241603D02*
X0108716Y0241603D01*
X0109919Y0243582D02*
X0109919Y0261582D01*
X0106519Y0264982D01*
X0107655Y0265544D02*
X0112819Y0265544D01*
X0112819Y0266142D02*
X0107056Y0266142D01*
X0108253Y0264945D02*
X0112819Y0264945D01*
X0112819Y0264347D02*
X0108852Y0264347D01*
X0109450Y0263748D02*
X0112819Y0263748D01*
X0112819Y0263150D02*
X0110049Y0263150D01*
X0110647Y0262551D02*
X0112819Y0262551D01*
X0112819Y0261953D02*
X0111119Y0261953D01*
X0111119Y0261354D02*
X0112819Y0261354D01*
X0112819Y0260756D02*
X0111119Y0260756D01*
X0111119Y0260157D02*
X0112819Y0260157D01*
X0112819Y0259559D02*
X0111119Y0259559D01*
X0111119Y0258960D02*
X0112819Y0258960D01*
X0112819Y0258362D02*
X0111119Y0258362D01*
X0111119Y0257763D02*
X0112819Y0257763D01*
X0112819Y0257165D02*
X0111119Y0257165D01*
X0111119Y0256566D02*
X0112819Y0256566D01*
X0112819Y0255968D02*
X0111119Y0255968D01*
X0111119Y0255369D02*
X0112819Y0255369D01*
X0112819Y0254771D02*
X0111119Y0254771D01*
X0111119Y0254172D02*
X0112819Y0254172D01*
X0112819Y0253574D02*
X0111119Y0253574D01*
X0111119Y0252975D02*
X0112819Y0252975D01*
X0112819Y0252377D02*
X0111119Y0252377D01*
X0111119Y0251778D02*
X0112819Y0251778D01*
X0112819Y0251179D02*
X0111119Y0251179D01*
X0111119Y0250581D02*
X0112819Y0250581D01*
X0112819Y0249982D02*
X0111119Y0249982D01*
X0111119Y0249384D02*
X0112819Y0249384D01*
X0112819Y0248785D02*
X0111119Y0248785D01*
X0111119Y0248187D02*
X0112819Y0248187D01*
X0112819Y0247588D02*
X0111119Y0247588D01*
X0111119Y0246990D02*
X0112819Y0246990D01*
X0112819Y0246391D02*
X0111119Y0246391D01*
X0111119Y0245793D02*
X0112819Y0245793D01*
X0112819Y0245194D02*
X0111489Y0245194D01*
X0112088Y0244596D02*
X0112819Y0244596D01*
X0112819Y0243997D02*
X0112169Y0243997D01*
X0112169Y0243399D02*
X0112819Y0243399D01*
X0112819Y0242800D02*
X0112169Y0242800D01*
X0111720Y0242202D02*
X0112819Y0242202D01*
X0112819Y0241603D02*
X0111122Y0241603D01*
X0108519Y0201982D02*
X0112119Y0198382D01*
X0112119Y0174982D01*
X0100119Y0162982D01*
X0100119Y0159982D01*
X0100719Y0159382D01*
X0100719Y0149182D01*
X0101619Y0148282D01*
X0101619Y0136882D01*
X0100119Y0135382D01*
X0100119Y0122282D01*
X0107619Y0114782D01*
X0104819Y0111982D01*
X0104819Y0110182D01*
X0100619Y0114582D02*
X0100619Y0117782D01*
X0097119Y0121282D01*
X0097119Y0135982D01*
X0099119Y0137982D01*
X0099119Y0147182D01*
X0098319Y0147982D01*
X0098319Y0157582D01*
X0097719Y0158182D01*
X0097719Y0164182D01*
X0109719Y0176182D01*
X0110919Y0175582D02*
X0110919Y0197582D01*
X0100919Y0179582D02*
X0101919Y0178582D01*
X0101919Y0173782D01*
X0094119Y0165982D01*
X0094119Y0155782D01*
X0094719Y0155182D01*
X0094719Y0145882D01*
X0095519Y0145082D01*
X0095519Y0139982D01*
X0100419Y0147682D02*
X0099519Y0148582D01*
X0099519Y0158782D01*
X0098919Y0159382D01*
X0098919Y0163582D01*
X0110919Y0175582D01*
X0112805Y0173972D02*
X0112819Y0173972D01*
X0112819Y0173373D02*
X0112207Y0173373D01*
X0111608Y0172774D02*
X0112819Y0172774D01*
X0112819Y0172176D02*
X0111010Y0172176D01*
X0110411Y0171577D02*
X0112819Y0171577D01*
X0112819Y0170979D02*
X0109813Y0170979D01*
X0109214Y0170380D02*
X0112819Y0170380D01*
X0112819Y0169782D02*
X0108616Y0169782D01*
X0108017Y0169183D02*
X0112819Y0169183D01*
X0112819Y0168585D02*
X0107419Y0168585D01*
X0106820Y0167986D02*
X0112819Y0167986D01*
X0112819Y0167388D02*
X0106222Y0167388D01*
X0105623Y0166789D02*
X0112819Y0166789D01*
X0112819Y0166191D02*
X0105025Y0166191D01*
X0104426Y0165592D02*
X0112819Y0165592D01*
X0112819Y0164994D02*
X0103827Y0164994D01*
X0103229Y0164395D02*
X0112819Y0164395D01*
X0112819Y0163797D02*
X0102630Y0163797D01*
X0102032Y0163198D02*
X0112819Y0163198D01*
X0112819Y0162600D02*
X0111470Y0162600D01*
X0112529Y0162001D02*
X0112819Y0162001D01*
X0110219Y0162001D02*
X0109619Y0162001D01*
X0109619Y0161403D02*
X0110219Y0161403D01*
X0110219Y0160804D02*
X0109619Y0160804D01*
X0109619Y0160206D02*
X0110219Y0160206D01*
X0110219Y0159607D02*
X0109619Y0159607D01*
X0109619Y0159009D02*
X0110219Y0159009D01*
X0109619Y0158882D02*
X0109619Y0162882D01*
X0109581Y0162882D01*
X0108912Y0162777D01*
X0108268Y0162567D01*
X0107665Y0162260D01*
X0107118Y0161862D01*
X0106639Y0161384D01*
X0106241Y0160836D01*
X0105934Y0160233D01*
X0105725Y0159589D01*
X0105619Y0158921D01*
X0105619Y0158882D01*
X0109619Y0158882D01*
X0109619Y0158410D02*
X0101919Y0158410D01*
X0101919Y0157812D02*
X0105687Y0157812D01*
X0105725Y0157575D02*
X0105934Y0156932D01*
X0106241Y0156329D01*
X0106639Y0155781D01*
X0107118Y0155303D01*
X0107665Y0154905D01*
X0108268Y0154597D01*
X0108912Y0154388D01*
X0109581Y0154282D01*
X0109619Y0154282D01*
X0109619Y0158282D01*
X0105619Y0158282D01*
X0105619Y0158244D01*
X0105725Y0157575D01*
X0105843Y0157213D02*
X0101919Y0157213D01*
X0101919Y0156615D02*
X0106096Y0156615D01*
X0106468Y0156016D02*
X0101919Y0156016D01*
X0101919Y0155418D02*
X0107003Y0155418D01*
X0107833Y0154819D02*
X0101919Y0154819D01*
X0101919Y0154221D02*
X0112819Y0154221D01*
X0112819Y0154819D02*
X0112005Y0154819D01*
X0112819Y0153622D02*
X0101919Y0153622D01*
X0101919Y0153024D02*
X0112819Y0153024D01*
X0112819Y0152425D02*
X0110833Y0152425D01*
X0112190Y0151827D02*
X0112819Y0151827D01*
X0112789Y0151228D02*
X0112819Y0151228D01*
X0110219Y0154819D02*
X0109619Y0154819D01*
X0109619Y0155418D02*
X0110219Y0155418D01*
X0110219Y0156016D02*
X0109619Y0156016D01*
X0109619Y0156615D02*
X0110219Y0156615D01*
X0110219Y0157213D02*
X0109619Y0157213D01*
X0109619Y0157812D02*
X0110219Y0157812D01*
X0110219Y0162600D02*
X0109619Y0162600D01*
X0108368Y0162600D02*
X0101433Y0162600D01*
X0101319Y0162001D02*
X0107309Y0162001D01*
X0106658Y0161403D02*
X0101319Y0161403D01*
X0101319Y0160804D02*
X0106225Y0160804D01*
X0105925Y0160206D02*
X0101593Y0160206D01*
X0101919Y0159607D02*
X0105731Y0159607D01*
X0105633Y0159009D02*
X0101919Y0159009D01*
X0101919Y0152425D02*
X0109005Y0152425D01*
X0107648Y0151827D02*
X0101919Y0151827D01*
X0109919Y0138582D02*
X0102919Y0131582D01*
X0102919Y0123582D01*
X0111519Y0114982D01*
X0111519Y0086782D01*
X0083119Y0074782D02*
X0082719Y0074782D01*
X0067006Y0094789D02*
X0066706Y0094789D01*
X0064719Y0096776D01*
X0064719Y0108382D01*
X0063519Y0109582D01*
X0057519Y0109582D01*
X0055866Y0106938D02*
X0052860Y0106938D01*
X0053459Y0106340D02*
X0056465Y0106340D01*
X0057063Y0105741D02*
X0054057Y0105741D01*
X0054656Y0105143D02*
X0058377Y0105143D01*
X0058975Y0104544D02*
X0055254Y0104544D01*
X0055853Y0103946D02*
X0057900Y0103946D01*
X0057302Y0103347D02*
X0056119Y0103347D01*
X0056119Y0102749D02*
X0056769Y0102749D01*
X0056769Y0102150D02*
X0056119Y0102150D01*
X0056119Y0101552D02*
X0056769Y0101552D01*
X0056769Y0100953D02*
X0056230Y0100953D01*
X0056829Y0100355D02*
X0057365Y0100355D01*
X0057169Y0099756D02*
X0057963Y0099756D01*
X0057169Y0099158D02*
X0059719Y0099158D01*
X0059719Y0098559D02*
X0057169Y0098559D01*
X0056979Y0097961D02*
X0059719Y0097961D01*
X0059719Y0097362D02*
X0056381Y0097362D01*
X0055118Y0096165D02*
X0059719Y0096165D01*
X0059719Y0095567D02*
X0055717Y0095567D01*
X0056169Y0094968D02*
X0059719Y0094968D01*
X0059719Y0094370D02*
X0056169Y0094370D01*
X0056169Y0093771D02*
X0059719Y0093771D01*
X0059719Y0093172D02*
X0056091Y0093172D01*
X0055493Y0092574D02*
X0059719Y0092574D01*
X0059719Y0096764D02*
X0053319Y0096764D01*
X0053319Y0097362D02*
X0053457Y0097362D01*
X0054919Y0099082D02*
X0054919Y0103182D01*
X0033519Y0124582D01*
X0033519Y0139582D01*
X0032319Y0140782D01*
X0032319Y0207982D01*
X0035919Y0211582D01*
X0052512Y0233224D02*
X0057719Y0233224D01*
X0057719Y0233823D02*
X0052147Y0233823D01*
X0051549Y0234421D02*
X0057719Y0234421D01*
X0061119Y0243982D02*
X0061119Y0244382D01*
X0074241Y0260157D02*
X0086319Y0260157D01*
X0086319Y0259559D02*
X0074840Y0259559D01*
X0075438Y0258960D02*
X0086319Y0258960D01*
X0086319Y0260756D02*
X0073643Y0260756D01*
X0073044Y0261354D02*
X0086319Y0261354D01*
X0089919Y0192582D02*
X0089919Y0185582D01*
X0099919Y0175582D01*
X0099919Y0173582D01*
X0092919Y0166582D01*
X0089719Y0162001D02*
X0064519Y0162001D01*
X0064519Y0161403D02*
X0089719Y0161403D01*
X0089444Y0160804D02*
X0064519Y0160804D01*
X0064519Y0160206D02*
X0088845Y0160206D01*
X0088247Y0159607D02*
X0064519Y0159607D01*
X0064519Y0159009D02*
X0087648Y0159009D01*
X0061119Y0135382D02*
X0050919Y0145582D01*
X0050919Y0153582D01*
X0041919Y0142582D02*
X0041919Y0132982D01*
X0037719Y0129982D02*
X0040319Y0127382D01*
X0045919Y0127382D01*
X0042100Y0120704D02*
X0039094Y0120704D01*
X0038496Y0121303D02*
X0041502Y0121303D01*
X0040903Y0121901D02*
X0037897Y0121901D01*
X0037299Y0122500D02*
X0040305Y0122500D01*
X0039706Y0123098D02*
X0036700Y0123098D01*
X0036102Y0123697D02*
X0039108Y0123697D01*
X0038509Y0124295D02*
X0035503Y0124295D01*
X0034905Y0124894D02*
X0037911Y0124894D01*
X0037312Y0125492D02*
X0034719Y0125492D01*
X0034719Y0126091D02*
X0036714Y0126091D01*
X0036115Y0126689D02*
X0034719Y0126689D01*
X0034719Y0127288D02*
X0035517Y0127288D01*
X0034918Y0127886D02*
X0034719Y0127886D01*
X0034719Y0128485D02*
X0034719Y0128485D01*
X0034719Y0129083D02*
X0034719Y0129083D01*
X0034719Y0129682D02*
X0034719Y0129682D01*
X0034719Y0130280D02*
X0034719Y0130280D01*
X0034719Y0130879D02*
X0034719Y0130879D01*
X0034719Y0131477D02*
X0034719Y0131477D01*
X0034719Y0132076D02*
X0034719Y0132076D01*
X0034719Y0132674D02*
X0034719Y0132674D01*
X0034719Y0133273D02*
X0034719Y0133273D01*
X0034719Y0133871D02*
X0034719Y0133871D01*
X0034719Y0134470D02*
X0034719Y0134470D01*
X0034719Y0135068D02*
X0034719Y0135068D01*
X0034719Y0135667D02*
X0034719Y0135667D01*
X0034719Y0136265D02*
X0034719Y0136265D01*
X0034719Y0136864D02*
X0034719Y0136864D01*
X0034719Y0137462D02*
X0034719Y0137462D01*
X0034719Y0138061D02*
X0034719Y0138061D01*
X0034719Y0138659D02*
X0034719Y0138659D01*
X0034719Y0139085D02*
X0034719Y0139085D01*
X0037719Y0146782D02*
X0037719Y0129982D01*
X0039693Y0120105D02*
X0042699Y0120105D01*
X0043297Y0119507D02*
X0040291Y0119507D01*
X0040890Y0118908D02*
X0043896Y0118908D01*
X0044494Y0118310D02*
X0041488Y0118310D01*
X0042087Y0117711D02*
X0045093Y0117711D01*
X0045691Y0117113D02*
X0042685Y0117113D01*
X0043284Y0116514D02*
X0046290Y0116514D01*
X0046888Y0115916D02*
X0043883Y0115916D01*
X0044481Y0115317D02*
X0047487Y0115317D01*
X0048085Y0114719D02*
X0045080Y0114719D01*
X0045678Y0114120D02*
X0048684Y0114120D01*
X0049282Y0113522D02*
X0046277Y0113522D01*
X0046875Y0112923D02*
X0049881Y0112923D01*
X0050479Y0112325D02*
X0047474Y0112325D01*
X0048072Y0111726D02*
X0051078Y0111726D01*
X0051677Y0111128D02*
X0048671Y0111128D01*
X0049269Y0110529D02*
X0052275Y0110529D01*
X0052874Y0109931D02*
X0049868Y0109931D01*
X0050466Y0109332D02*
X0053472Y0109332D01*
X0054071Y0108734D02*
X0051065Y0108734D01*
X0051663Y0108135D02*
X0054669Y0108135D01*
X0055268Y0107537D02*
X0052262Y0107537D01*
X0049919Y0101582D02*
X0049919Y0082182D01*
X0049319Y0081582D01*
X0044920Y0082399D02*
X0029119Y0082399D01*
X0018943Y0082399D02*
X0017019Y0082399D01*
X0017019Y0081801D02*
X0017622Y0081801D01*
X0017023Y0081202D02*
X0017019Y0081202D01*
X0017019Y0085392D02*
X0017594Y0085392D01*
X0017198Y0091377D02*
X0017019Y0091377D01*
X0017019Y0091975D02*
X0017919Y0091975D01*
X0017170Y0075816D02*
X0017019Y0075816D01*
X0017019Y0075217D02*
X0017852Y0075217D01*
X0019619Y0068035D02*
X0020219Y0068035D01*
X0020219Y0067437D02*
X0019619Y0067437D01*
X0019619Y0066838D02*
X0020219Y0066838D01*
X0020219Y0066239D02*
X0019619Y0066239D01*
X0019619Y0065641D02*
X0020219Y0065641D01*
X0020219Y0065042D02*
X0019619Y0065042D01*
X0019619Y0064444D02*
X0020219Y0064444D01*
X0021097Y0064444D02*
X0026719Y0064444D01*
X0026719Y0065042D02*
X0022362Y0065042D01*
X0023059Y0065641D02*
X0026719Y0065641D01*
X0026719Y0066239D02*
X0023532Y0066239D01*
X0023856Y0066838D02*
X0026719Y0066838D01*
X0026719Y0067437D02*
X0024068Y0067437D01*
X0024186Y0068035D02*
X0026719Y0068035D01*
X0026719Y0063845D02*
X0017019Y0063845D01*
X0017019Y0063247D02*
X0026719Y0063247D01*
X0026719Y0062648D02*
X0017019Y0062648D01*
X0017019Y0062050D02*
X0026719Y0062050D01*
X0026591Y0061451D02*
X0017019Y0061451D01*
X0017019Y0060853D02*
X0025992Y0060853D01*
X0025394Y0060254D02*
X0017019Y0060254D01*
X0017019Y0059656D02*
X0024795Y0059656D01*
X0024197Y0059057D02*
X0017019Y0059057D01*
X0017019Y0058459D02*
X0023598Y0058459D01*
X0023000Y0057860D02*
X0017019Y0057860D01*
X0017019Y0057262D02*
X0020916Y0057262D01*
X0020318Y0056663D02*
X0017019Y0056663D01*
X0017019Y0056065D02*
X0020169Y0056065D01*
X0020169Y0055466D02*
X0017019Y0055466D01*
X0017019Y0054868D02*
X0020169Y0054868D01*
X0020550Y0054269D02*
X0017019Y0054269D01*
X0017019Y0053671D02*
X0021149Y0053671D01*
X0017019Y0053072D02*
X0054732Y0053072D01*
X0055331Y0052474D02*
X0017019Y0052474D01*
X0017019Y0051875D02*
X0055929Y0051875D01*
X0056528Y0051277D02*
X0017019Y0051277D01*
X0017019Y0050678D02*
X0057126Y0050678D01*
X0057725Y0050080D02*
X0017019Y0050080D01*
X0017019Y0049481D02*
X0058323Y0049481D01*
X0058922Y0048883D02*
X0017019Y0048883D01*
X0017019Y0048284D02*
X0059520Y0048284D01*
X0060119Y0047686D02*
X0017019Y0047686D01*
X0017019Y0047087D02*
X0060717Y0047087D01*
X0061316Y0046489D02*
X0017019Y0046489D01*
X0017019Y0045890D02*
X0061914Y0045890D01*
X0062513Y0045292D02*
X0017019Y0045292D01*
X0017019Y0044693D02*
X0063111Y0044693D01*
X0063710Y0044095D02*
X0017019Y0044095D01*
X0017019Y0043496D02*
X0064308Y0043496D01*
X0064907Y0042898D02*
X0017019Y0042898D01*
X0017019Y0064444D02*
X0018741Y0064444D01*
X0017476Y0065042D02*
X0017019Y0065042D01*
X0017019Y0112923D02*
X0031881Y0112923D01*
X0031282Y0113522D02*
X0017019Y0113522D01*
X0017019Y0114120D02*
X0030684Y0114120D01*
X0030085Y0114719D02*
X0017019Y0114719D01*
X0017019Y0115317D02*
X0029487Y0115317D01*
X0028888Y0115916D02*
X0017019Y0115916D01*
X0017019Y0116514D02*
X0028290Y0116514D01*
X0029319Y0122182D02*
X0049919Y0101582D01*
X0059019Y0101882D02*
X0060919Y0099982D01*
X0060919Y0072582D01*
X0062919Y0070582D01*
X0065409Y0062648D02*
X0053550Y0062648D01*
X0055925Y0079407D02*
X0059719Y0079407D01*
X0059719Y0080005D02*
X0056169Y0080005D01*
X0056169Y0080604D02*
X0059719Y0080604D01*
X0059719Y0081202D02*
X0056169Y0081202D01*
X0055883Y0081801D02*
X0059719Y0081801D01*
X0059719Y0082399D02*
X0055284Y0082399D01*
X0056319Y0130582D02*
X0053519Y0130582D01*
X0056319Y0130582D02*
X0061119Y0135382D01*
X0037719Y0146782D02*
X0036719Y0147782D01*
X0026719Y0147637D02*
X0023819Y0147637D01*
X0023819Y0147039D02*
X0026719Y0147039D01*
X0026719Y0146440D02*
X0023819Y0146440D01*
X0023819Y0145841D02*
X0026719Y0145841D01*
X0026719Y0145243D02*
X0023819Y0145243D01*
X0023819Y0148236D02*
X0026719Y0148236D01*
X0026719Y0148834D02*
X0023819Y0148834D01*
X0023819Y0149433D02*
X0026719Y0149433D01*
X0026719Y0150031D02*
X0023819Y0150031D01*
X0023819Y0150630D02*
X0026719Y0150630D01*
X0026719Y0151228D02*
X0023819Y0151228D01*
X0023819Y0151827D02*
X0026719Y0151827D01*
X0026719Y0152425D02*
X0023349Y0152425D01*
X0017319Y0135667D02*
X0017019Y0135667D01*
X0017019Y0135068D02*
X0018212Y0135068D01*
X0017970Y0175169D02*
X0017019Y0175169D01*
X0017019Y0175767D02*
X0017219Y0175767D01*
X0017019Y0181752D02*
X0017573Y0181752D01*
X0017019Y0184745D02*
X0018993Y0184745D01*
X0017643Y0185343D02*
X0017019Y0185343D01*
X0017019Y0185942D02*
X0017044Y0185942D01*
X0017019Y0191328D02*
X0017150Y0191328D01*
X0017019Y0191927D02*
X0017802Y0191927D01*
D14*
X0022119Y0210982D03*
X0035919Y0211582D03*
X0036719Y0198782D03*
X0042919Y0193582D03*
X0042919Y0181582D03*
X0049919Y0181582D03*
X0055319Y0176582D03*
X0050919Y0153582D03*
X0041919Y0142582D03*
X0036719Y0147782D03*
X0041919Y0132982D03*
X0045919Y0127382D03*
X0053519Y0130582D03*
X0058719Y0112582D03*
X0060119Y0106582D03*
X0059019Y0101882D03*
X0054919Y0099082D03*
X0053919Y0094182D03*
X0045919Y0084582D03*
X0049319Y0081582D03*
X0053919Y0080582D03*
X0048919Y0073582D03*
X0044319Y0077182D03*
X0032919Y0100582D03*
X0032919Y0106582D03*
X0022419Y0055582D03*
X0056919Y0036982D03*
X0069919Y0043582D03*
X0076119Y0030982D03*
X0079919Y0048582D03*
X0081619Y0063182D03*
X0082719Y0074782D03*
X0079919Y0078982D03*
X0086519Y0088982D03*
X0081519Y0092182D03*
X0084719Y0097182D03*
X0092819Y0102982D03*
X0100519Y0097682D03*
X0101919Y0090482D03*
X0104519Y0087682D03*
X0105119Y0092782D03*
X0102219Y0084782D03*
X0101319Y0080782D03*
X0092819Y0072382D03*
X0092319Y0068982D03*
X0093019Y0059982D03*
X0091719Y0053782D03*
X0092919Y0049582D03*
X0088019Y0079682D03*
X0100919Y0109382D03*
X0104819Y0110182D03*
X0100619Y0114582D03*
X0089019Y0136082D03*
X0090919Y0142682D03*
X0089119Y0149182D03*
X0089419Y0155082D03*
X0074719Y0153982D03*
X0073719Y0160582D03*
X0074919Y0166582D03*
X0089919Y0192582D03*
X0097919Y0210582D03*
X0106619Y0194382D03*
X0105119Y0182582D03*
X0100919Y0179582D03*
X0074919Y0217582D03*
X0089419Y0251082D03*
X0092319Y0259582D03*
X0097919Y0259182D03*
X0109919Y0243582D03*
X0106919Y0235582D03*
X0100119Y0228382D03*
X0076119Y0256582D03*
X0055319Y0227582D03*
X0050262Y0232526D03*
X0042919Y0233582D03*
X0035919Y0231382D03*
X0042919Y0244582D03*
X0036744Y0250808D03*
X0050919Y0254582D03*
X0050419Y0205982D03*
X0053919Y0201582D03*
X0021519Y0159382D03*
X0063819Y0115782D03*
X0069519Y0116782D03*
X0074919Y0121582D03*
X0080319Y0120382D03*
X0080219Y0109982D03*
X0085119Y0109782D03*
X0067006Y0094789D03*
X0067719Y0086382D03*
X0069919Y0078582D03*
X0062919Y0070582D03*
X0066919Y0060976D03*
D15*
X0069519Y0132982D03*
X0069519Y0137782D03*
X0069519Y0142582D03*
X0069519Y0147382D03*
X0075519Y0147382D03*
X0075519Y0142582D03*
X0075519Y0137782D03*
X0075519Y0132982D03*
X0075519Y0183982D03*
X0075519Y0188782D03*
X0075519Y0193582D03*
X0075519Y0198382D03*
X0069519Y0198382D03*
X0069519Y0193582D03*
X0069519Y0188782D03*
X0069519Y0183982D03*
X0069519Y0234982D03*
X0069519Y0239782D03*
X0069519Y0244582D03*
X0069519Y0249382D03*
X0075519Y0249382D03*
X0075519Y0244582D03*
X0075519Y0239782D03*
X0075519Y0234982D03*
D16*
X0074919Y0217582D02*
X0061819Y0217582D01*
X0061119Y0216882D02*
X0061119Y0231982D01*
X0061119Y0243982D01*
X0061119Y0216882D02*
X0061119Y0199582D01*
X0061119Y0179782D01*
X0061119Y0166582D01*
X0074919Y0166582D01*
X0061119Y0166582D02*
X0061119Y0137782D01*
X0061119Y0135382D01*
X0061119Y0129982D01*
X0065319Y0125782D01*
X0070719Y0125782D01*
X0074919Y0121582D01*
X0074919Y0037582D01*
X0055919Y0018582D01*
X0019919Y0018582D01*
M02*
