%
M48
M72
T01C0.0130
T02C0.0236
T03C0.0276
T04C0.0400
%
T01
X2242Y5558
X4432Y7718
X4592Y8458
X4932Y8158
X5392Y8058
X4892Y7358
X5392Y9418
X5492Y9908
X5902Y10188
X6012Y10658
X5872Y11258
X6382Y11578
X6952Y11678
X7492Y12158
X8032Y12038
X8022Y10998
X8512Y10978
X9282Y10298
X10052Y9768
X10192Y9048
X10452Y8768
X10512Y9278
X10222Y8478
X10132Y8078
X9282Y7238
X9232Y6898
X9302Y5998
X9172Y5378
X9292Y4958
X8162Y6318
X8272Y7478
X7992Y7898
X8652Y8898
X8152Y9218
X8472Y9718
X8802Y7968
X10092Y10938
X10482Y11018
X10062Y11458
X8902Y13608
X9092Y14268
X8912Y14918
X8942Y15508
X7472Y15398
X7372Y16058
X7492Y16658
X8992Y19258
X9792Y21058
X10662Y19438
X10512Y18258
X10092Y17958
X7492Y21758
X8942Y25108
X9232Y25958
X9792Y25918
X10992Y24358
X10692Y23558
X10012Y22838
X7612Y25658
X5532Y22758
X5026Y23253
X4292Y23358
X3592Y23138
X4292Y24458
X3674Y25081
X5092Y25458
X3592Y21158
X3672Y19878
X4292Y19358
X4292Y18158
X4992Y18158
X5532Y17658
X5092Y15358
X4192Y14258
X3672Y14778
X4192Y13298
X4592Y12738
X5352Y13058
X3292Y10658
X3292Y10058
X6292Y7058
X6692Y6098
X6992Y7858
X6772Y8638
X6701Y9479
X7992Y4858
X6992Y4358
X7612Y3098
X5692Y3698
X2152Y15938
X2212Y21098
X5042Y20598
X5392Y20158
T02
X6952Y19838
X6952Y19358
X6952Y18878
X6952Y18398
X7552Y18398
X7552Y18878
X7552Y19358
X7552Y19838
X7552Y23498
X7552Y23978
X7552Y24458
X7552Y24938
X6952Y24938
X6952Y24458
X6952Y23978
X6952Y23498
X6952Y14738
X6952Y14258
X6952Y13778
X6952Y13298
X7552Y13298
X7552Y13778
X7552Y14258
X7552Y14738
T03
X8159Y2403
X10325Y2403
T04
X1992Y1858
X1992Y2858
X1992Y6858
X1992Y7858
X1992Y8858
X1992Y9858
X1992Y10858
X1992Y12858
X1992Y13858
X1992Y14858
X1992Y17858
X1992Y18858
X1992Y19858
X1992Y22858
X1992Y23858
X1992Y24858
X10992Y22858
X10992Y21858
X10992Y20858
X10992Y15858
X10992Y14858
X10992Y13858
X10992Y12858
X10992Y7898
X10992Y6898
X10992Y5898
M30
