G75*
%MOIN*%
%OFA0B0*%
%FSLAX25Y25*%
%IPPOS*%
%LPD*%
%AMOC8*
5,1,8,0,0,1.08239X$1,22.5*
%
%ADD10R,0.06500X0.06500*%
%ADD11C,0.06500*%
%ADD12C,0.04656*%
%ADD13C,0.04262*%
D10*
X0019919Y0018582D03*
X0019919Y0108582D03*
X0019919Y0148582D03*
X0019919Y0198582D03*
X0019919Y0248582D03*
X0109919Y0208582D03*
X0109919Y0128582D03*
X0109919Y0058982D03*
D11*
X0109919Y0068982D03*
X0109919Y0078982D03*
X0109919Y0138582D03*
X0109919Y0148582D03*
X0109919Y0158582D03*
X0109919Y0218582D03*
X0109919Y0228582D03*
X0019919Y0228582D03*
X0019919Y0238582D03*
X0019919Y0188582D03*
X0019919Y0178582D03*
X0019919Y0138582D03*
X0019919Y0128582D03*
X0019919Y0098582D03*
X0019919Y0088582D03*
X0019919Y0078582D03*
X0019919Y0068582D03*
X0019919Y0028582D03*
D12*
X0081592Y0024028D03*
X0103246Y0024028D03*
D13*
X0075519Y0132982D03*
X0075519Y0137782D03*
X0075519Y0142582D03*
X0075519Y0147382D03*
X0069519Y0147382D03*
X0069519Y0142582D03*
X0069519Y0137782D03*
X0069519Y0132982D03*
X0069519Y0183982D03*
X0069519Y0188782D03*
X0069519Y0193582D03*
X0069519Y0198382D03*
X0075519Y0198382D03*
X0075519Y0193582D03*
X0075519Y0188782D03*
X0075519Y0183982D03*
X0075519Y0234982D03*
X0075519Y0239782D03*
X0075519Y0244582D03*
X0075519Y0249382D03*
X0069519Y0249382D03*
X0069519Y0244582D03*
X0069519Y0239782D03*
X0069519Y0234982D03*
M02*
